<svg xmlns="http://www.w3.org/2000/svg" version="1.1" xmlns:xlink="http://www.w3.org/1999/xlink" xmlns:svgjs="http://svgjs.com/svgjs" width="1440" height="560" preserveAspectRatio="none" viewBox="0 0 1440 560"><g mask="url(&quot;#SvgjsMask1011&quot;)" fill="none"><path d="M623.37 164.66L677.65 164.66L677.65 189.17L623.37 189.17z" fill="rgba(152, 165, 171, 1)"></path><path d="M199.61 434.34a45.21 45.21 0 1 0 16.42-88.91z" stroke="rgba(85, 98, 104, 1)"></path><path d="M847.17 299.94L876.26 299.94L876.26 336.64L847.17 336.64z" stroke="rgba(67, 56, 202, 1)"></path><path d="M960.81 414.86a6.64 6.64 0 1 0 12.7-3.88z" stroke="rgba(165, 205, 255, 1)"></path><path d="M703.68 95.75L733.02 95.75L733.02 130.11L703.68 130.11z" stroke="rgba(152, 165, 171, 1)"></path><path d="M1316.39 41.99 a25.45 25.45 0 1 0 50.9 0 a25.45 25.45 0 1 0 -50.9 0z" fill="rgba(152, 165, 171, 1)"></path><path d="M589.75 229.17a17.71 17.71 0 1 0-22.22 27.58z" stroke="rgba(67, 56, 202, 1)"></path><path d="M329.95 341.09 a51.85 51.85 0 1 0 103.7 0 a51.85 51.85 0 1 0 -103.7 0z" fill="rgba(165, 205, 255, 1)"></path><path d="M1087.07 345.59a41.92 41.92 0 1 0 68.28-48.65z" stroke="rgba(67, 56, 202, 1)"></path><path d="M1213.39 410.58a28.77 28.77 0 1 0-44.87-36.02z" stroke="rgba(67, 56, 202, 1)"></path><path d="M582.31 472.37L627.97 472.37L627.97 503.41L582.31 503.41z" fill="rgba(85, 98, 104, 1)"></path><path d="M663.13 294.64 a16.03 16.03 0 1 0 32.06 0 a16.03 16.03 0 1 0 -32.06 0z" stroke="rgba(85, 98, 104, 1)"></path><path d="M458.43 82.49 a3.42 3.42 0 1 0 6.84 0 a3.42 3.42 0 1 0 -6.84 0z" fill="rgba(152, 165, 171, 1)"></path><path d="M780.56 40.75 a15.99 15.99 0 1 0 31.98 0 a15.99 15.99 0 1 0 -31.98 0z" stroke="rgba(85, 98, 104, 1)"></path><path d="M1236.74 246.9 a35.06 35.06 0 1 0 70.12 0 a35.06 35.06 0 1 0 -70.12 0z" fill="rgba(165, 205, 255, 1)"></path><path d="M162.85 73.41 a24.5 24.5 0 1 0 49 0 a24.5 24.5 0 1 0 -49 0z" fill="rgba(152, 165, 171, 1)"></path><path d="M691.21 33.4 a19.59 19.59 0 1 0 39.18 0 a19.59 19.59 0 1 0 -39.18 0z" fill="rgba(165, 205, 255, 1)"></path><path d="M617.61 57.16L628.85 57.16L628.85 68.18L617.61 68.18z" fill="rgba(152, 165, 171, 1)"></path><path d="M271.84 415.55 a4.45 4.45 0 1 0 8.9 0 a4.45 4.45 0 1 0 -8.9 0z" fill="rgba(165, 205, 255, 1)"></path><path d="M184.43 178.46 a51.47 51.47 0 1 0 102.94 0 a51.47 51.47 0 1 0 -102.94 0z" stroke="rgba(165, 205, 255, 1)"></path><path d="M749.63 120.38L791.11 120.38L791.11 161.78L749.63 161.78z" stroke="rgba(85, 98, 104, 1)"></path><path d="M1285.8 375.1 a31.38 31.38 0 1 0 62.76 0 a31.38 31.38 0 1 0 -62.76 0z" stroke="rgba(67, 56, 202, 1)"></path><path d="M1250.77 362.34L1271.75 362.34L1271.75 411.94L1250.77 411.94z" fill="rgba(67, 56, 202, 1)"></path><path d="M1324.67 175.85L1360.48 175.85L1360.48 216.04L1324.67 216.04z" stroke="rgba(67, 56, 202, 1)"></path><path d="M723.84 456.94 a26.48 26.48 0 1 0 52.96 0 a26.48 26.48 0 1 0 -52.96 0z" stroke="rgba(152, 165, 171, 1)"></path><path d="M825.61 532.59L848.27 532.59L848.27 572.99L825.61 572.99z" fill="rgba(165, 205, 255, 1)"></path><path d="M786.34 264.2 a44.71 44.71 0 1 0 89.42 0 a44.71 44.71 0 1 0 -89.42 0z" stroke="rgba(152, 165, 171, 1)"></path><path d="M1102.34 500.26L1153.37 500.26L1153.37 525.43L1102.34 525.43z" fill="rgba(152, 165, 171, 1)"></path><path d="M414.69 264.42L457.83 264.42L457.83 307.56L414.69 307.56z" fill="rgba(67, 56, 202, 1)"></path><path d="M675.46 165.07L679.83 165.07L679.83 203.46L675.46 203.46z" stroke="rgba(67, 56, 202, 1)"></path><path d="M1096.11 438.8 a37.44 37.44 0 1 0 74.88 0 a37.44 37.44 0 1 0 -74.88 0z" fill="rgba(152, 165, 171, 1)"></path><path d="M1006.98 191.89 a21.39 21.39 0 1 0 42.78 0 a21.39 21.39 0 1 0 -42.78 0z" fill="rgba(85, 98, 104, 1)"></path><path d="M758.92 13.43L773.06 13.43L773.06 27.57L758.92 27.57z" stroke="rgba(67, 56, 202, 1)"></path></g><defs><mask id="SvgjsMask1011"><rect width="1440" height="560" fill="#ffffff"></rect></mask></defs></svg>