<svg xmlns="http://www.w3.org/2000/svg" version="1.1" xmlns:xlink="http://www.w3.org/1999/xlink" xmlns:svgjs="http://svgjs.com/svgjs" width="1440" height="560" preserveAspectRatio="none" viewBox="0 0 1440 560"><g mask="url(&quot;#SvgjsMask1006&quot;)" fill="none"><path d="M807.64 439.56L859.82 439.56L859.82 494.9L807.64 494.9z" fill="rgba(238, 242, 255, 1)"></path><path d="M1326.1 288.56L1365.69 288.56L1365.69 328.15L1326.1 328.15z" fill="rgba(67, 56, 202, 1)"></path><path d="M1377.53 190.15L1401.41 190.15L1401.41 214.03L1377.53 214.03z" stroke="rgba(67, 56, 202, 1)"></path><path d="M1405.13 263.83L1439.4 263.83L1439.4 292.18L1405.13 292.18z" stroke="rgba(165, 205, 255, 1)"></path><path d="M1165.03 545.21L1194.89 545.21L1194.89 575.07L1165.03 575.07z" stroke="rgba(165, 205, 255, 1)"></path><path d="M1023.76 554.31 a53.96 53.96 0 1 0 107.92 0 a53.96 53.96 0 1 0 -107.92 0z" stroke="rgba(85, 98, 104, 1)"></path><path d="M1309.18 314.45L1349.68 314.45L1349.68 354.95L1309.18 354.95z" fill="rgba(165, 205, 255, 1)"></path><path d="M1154.67 344.27a10.35 10.35 0 1 0 15.25 14z" fill="rgba(67, 56, 202, 1)"></path><path d="M448.95 417.81L450.33 417.81L450.33 419.19L448.95 419.19z" fill="rgba(238, 242, 255, 1)"></path><path d="M599.23 73.78L634.08 73.78L634.08 104.7L599.23 104.7z" fill="rgba(238, 242, 255, 1)"></path><path d="M740.2 429.52 a55.75 55.75 0 1 0 111.5 0 a55.75 55.75 0 1 0 -111.5 0z" stroke="rgba(165, 205, 255, 1)"></path><path d="M843.88 353.68 a49.54 49.54 0 1 0 99.08 0 a49.54 49.54 0 1 0 -99.08 0z" fill="rgba(67, 56, 202, 1)"></path><path d="M69.07 145.45a4.56 4.56 0 1 0-5.82 7.02z" stroke="rgba(165, 205, 255, 1)"></path><path d="M585.48 95.78 a23.84 23.84 0 1 0 47.68 0 a23.84 23.84 0 1 0 -47.68 0z" stroke="rgba(238, 242, 255, 1)"></path><path d="M14.08 61.21L35.02 61.21L35.02 82.15L14.08 82.15z" fill="rgba(165, 205, 255, 1)"></path><path d="M964.09 145.07L977.93 145.07L977.93 158.91L964.09 158.91z" fill="rgba(67, 56, 202, 1)"></path><path d="M930.65 420.51L970.58 420.51L970.58 455.31L930.65 455.31z" fill="rgba(152, 165, 171, 1)"></path><path d="M1300.14 8.33L1353.34 8.33L1353.34 13.43L1300.14 13.43z" fill="rgba(238, 242, 255, 1)"></path><path d="M1356.03 242.53 a39.88 39.88 0 1 0 79.76 0 a39.88 39.88 0 1 0 -79.76 0z" stroke="rgba(152, 165, 171, 1)"></path><path d="M1037.27 150.38L1081.16 150.38L1081.16 200.47L1037.27 200.47z" stroke="rgba(165, 205, 255, 1)"></path><path d="M1038.36 230.02a49.1 49.1 0 1 0 46.9-86.27z" fill="rgba(238, 242, 255, 1)"></path><path d="M1076.09 510.91L1078.76 510.91L1078.76 526.66L1076.09 526.66z" stroke="rgba(152, 165, 171, 1)"></path><path d="M450.01 243.86a11.49 11.49 0 1 0 11.5-19.9z" fill="rgba(85, 98, 104, 1)"></path><path d="M790.58 434.83L808.55 434.83L808.55 452.8L790.58 452.8z" stroke="rgba(165, 205, 255, 1)"></path><path d="M130.23 103.23L168.67 103.23L168.67 108.3L130.23 108.3z" stroke="rgba(238, 242, 255, 1)"></path><path d="M577.34 514.65 a49.64 49.64 0 1 0 99.28 0 a49.64 49.64 0 1 0 -99.28 0z" fill="rgba(238, 242, 255, 1)"></path><path d="M14.32 38.02L32.99 38.02L32.99 47.61L14.32 47.61z" fill="rgba(67, 56, 202, 1)"></path><path d="M505.28 159.37 a17.18 17.18 0 1 0 34.36 0 a17.18 17.18 0 1 0 -34.36 0z" fill="rgba(67, 56, 202, 1)"></path><path d="M287.91 176.96 a25.74 25.74 0 1 0 51.48 0 a25.74 25.74 0 1 0 -51.48 0z" fill="rgba(67, 56, 202, 1)"></path><path d="M619.59 237.32L626.97 237.32L626.97 244.7L619.59 244.7z" fill="rgba(165, 205, 255, 1)"></path><path d="M650.68 457.88L696.36 457.88L696.36 503.44L650.68 503.44z" stroke="rgba(67, 56, 202, 1)"></path><path d="M685.53 5.52L703.73 5.52L703.73 23.72L685.53 23.72z" fill="rgba(152, 165, 171, 1)"></path><path d="M108.16 158.54L117.76 158.54L117.76 168.14L108.16 168.14z" fill="rgba(152, 165, 171, 1)"></path></g><defs><mask id="SvgjsMask1006"><rect width="1440" height="560" fill="#ffffff"></rect></mask></defs></svg>