<svg xmlns="http://www.w3.org/2000/svg" version="1.1" xmlns:xlink="http://www.w3.org/1999/xlink" xmlns:svgjs="http://svgjs.com/svgjs" width="1440" height="560" preserveAspectRatio="none" viewBox="0 0 1440 560"><g mask="url(&quot;#SvgjsMask1008&quot;)" fill="none"><path d="M951.01 440.54 a21.52 21.52 0 1 0 43.04 0 a21.52 21.52 0 1 0 -43.04 0z" stroke="rgba(67, 56, 202, 1)"></path><path d="M739.2 408.13L740.87 408.13L740.87 418.12L739.2 418.12z" fill="rgba(152, 165, 171, 1)"></path><path d="M561.31 542.31L582.43 542.31L582.43 576.34L561.31 576.34z" fill="rgba(67, 56, 202, 1)"></path><path d="M126.22 49.17L179.51 49.17L179.51 102.46L126.22 102.46z" fill="rgba(152, 165, 171, 1)"></path><path d="M1169.1 465.28a22.1 22.1 0 1 0 15 41.58z" stroke="rgba(238, 242, 255, 1)"></path><path d="M343.73 428.28a53.87 53.87 0 1 0-30.59 103.31z" stroke="rgba(238, 242, 255, 1)"></path><path d="M412.55 283.39L428.58 283.39L428.58 285.73L412.55 285.73z" stroke="rgba(238, 242, 255, 1)"></path><path d="M827.31 276.4L833.73 276.4L833.73 282.82L827.31 282.82z" stroke="rgba(85, 98, 104, 1)"></path><path d="M1188.44 462.42L1230.6 462.42L1230.6 504.58L1188.44 504.58z" stroke="rgba(85, 98, 104, 1)"></path><path d="M925.83 457.57L973.82 457.57L973.82 504.89L925.83 504.89z" fill="rgba(85, 98, 104, 1)"></path><path d="M-26.3 364.03 a35.94 35.94 0 1 0 71.88 0 a35.94 35.94 0 1 0 -71.88 0z" fill="rgba(67, 56, 202, 1)"></path><path d="M83.51 134.39 a9.11 9.11 0 1 0 18.22 0 a9.11 9.11 0 1 0 -18.22 0z" fill="rgba(67, 56, 202, 1)"></path><path d="M126.58 273.37L151.84 273.37L151.84 298.63L126.58 298.63z" fill="rgba(85, 98, 104, 1)"></path><path d="M407.3 293.72a16.08 16.08 0 1 0 21.76 23.68z" stroke="rgba(152, 165, 171, 1)"></path><path d="M1379.21 449.96a15.36 15.36 0 1 0 27.5 13.69z" fill="rgba(85, 98, 104, 1)"></path><path d="M1264.76 291.07L1313.24 291.07L1313.24 325.76L1264.76 325.76z" stroke="rgba(152, 165, 171, 1)"></path><path d="M186.87 29.13L210.16 29.13L210.16 52.42L186.87 52.42z" fill="rgba(67, 56, 202, 1)"></path><path d="M623.43 316.86L659.37 316.86L659.37 352.8L623.43 352.8z" stroke="rgba(152, 165, 171, 1)"></path><path d="M879.57 334.68a6.75 6.75 0 1 0 7.39 11.3z" stroke="rgba(165, 205, 255, 1)"></path><path d="M461.04 253.51a16.75 16.75 0 1 0-2.17 33.43z" stroke="rgba(165, 205, 255, 1)"></path><path d="M182.41 294.37a1.01 1.01 0 1 0-1.92 0.61z" stroke="rgba(152, 165, 171, 1)"></path><path d="M1234.83 293.51 a6.77 6.77 0 1 0 13.54 0 a6.77 6.77 0 1 0 -13.54 0z" stroke="rgba(67, 56, 202, 1)"></path><path d="M1084.46 37.91 a15.15 15.15 0 1 0 30.3 0 a15.15 15.15 0 1 0 -30.3 0z" stroke="rgba(152, 165, 171, 1)"></path><path d="M639.51 426.61 a31.08 31.08 0 1 0 62.16 0 a31.08 31.08 0 1 0 -62.16 0z" stroke="rgba(238, 242, 255, 1)"></path><path d="M957.02 32.28a26.42 26.42 0 1 0 51.68 11.02z" stroke="rgba(67, 56, 202, 1)"></path><path d="M999.99 63.72a14.76 14.76 0 1 0 6.98-28.68z" stroke="rgba(165, 205, 255, 1)"></path><path d="M1337.18 454.01 a14.89 14.89 0 1 0 29.78 0 a14.89 14.89 0 1 0 -29.78 0z" stroke="rgba(85, 98, 104, 1)"></path><path d="M112.4 391.58L115.27 391.58L115.27 424.02L112.4 424.02z" stroke="rgba(152, 165, 171, 1)"></path><path d="M219.22 272.39L223.07 272.39L223.07 311.36L219.22 311.36z" fill="rgba(238, 242, 255, 1)"></path><path d="M371.72 465.8L375.94 465.8L375.94 465.82L371.72 465.82z" fill="rgba(238, 242, 255, 1)"></path><path d="M323.92 300.98L346.49 300.98L346.49 323.55L323.92 323.55z" fill="rgba(238, 242, 255, 1)"></path><path d="M994.92 383.02L1046.11 383.02L1046.11 434.21L994.92 434.21z" fill="rgba(165, 205, 255, 1)"></path><path d="M36.84 91.46L77.72 91.46L77.72 143.77L36.84 143.77z" stroke="rgba(85, 98, 104, 1)"></path></g><defs><mask id="SvgjsMask1008"><rect width="1440" height="560" fill="#ffffff"></rect></mask></defs></svg>