<svg xmlns="http://www.w3.org/2000/svg" version="1.1" xmlns:xlink="http://www.w3.org/1999/xlink" xmlns:svgjs="http://svgjs.com/svgjs" width="1440" height="560" preserveAspectRatio="none" viewBox="0 0 1440 560"><g mask="url(&quot;#SvgjsMask1009&quot;)" fill="none"><path d="M188.41 311.46L213.08 311.46L213.08 336.13L188.41 336.13z" stroke="rgba(165, 205, 255, 1)"></path><path d="M752.36 54.83 a3.64 3.64 0 1 0 7.28 0 a3.64 3.64 0 1 0 -7.28 0z" stroke="rgba(238, 242, 255, 1)"></path><path d="M1368.96 69.4L1387.03 69.4L1387.03 87.47L1368.96 87.47z" stroke="rgba(238, 242, 255, 1)"></path><path d="M1266.31 335.6a35.35 35.35 0 1 0-48.76-51.19z" stroke="rgba(165, 205, 255, 1)"></path><path d="M510.65 151.15 a21.48 21.48 0 1 0 42.96 0 a21.48 21.48 0 1 0 -42.96 0z" fill="rgba(152, 165, 171, 1)"></path><path d="M181.02 208.28 a25.45 25.45 0 1 0 50.9 0 a25.45 25.45 0 1 0 -50.9 0z" stroke="rgba(238, 242, 255, 1)"></path><path d="M1076.03 247.7L1129.47 247.7L1129.47 256.14L1076.03 256.14z" stroke="rgba(85, 98, 104, 1)"></path><path d="M886.01 213.53a39.58 39.58 0 1 0 78.98 5.36z" stroke="rgba(165, 205, 255, 1)"></path><path d="M829.44 266.37L855.3 266.37L855.3 295.2L829.44 295.2z" stroke="rgba(165, 205, 255, 1)"></path><path d="M80.01 156.83L102.93 156.83L102.93 177.89L80.01 177.89z" stroke="rgba(165, 205, 255, 1)"></path><path d="M1251.77 373L1287.54 373L1287.54 427.15L1251.77 427.15z" fill="rgba(165, 205, 255, 1)"></path><path d="M414.21 283.78 a18.06 18.06 0 1 0 36.12 0 a18.06 18.06 0 1 0 -36.12 0z" fill="rgba(152, 165, 171, 1)"></path><path d="M574.74 154.19 a22.78 22.78 0 1 0 45.56 0 a22.78 22.78 0 1 0 -45.56 0z" stroke="rgba(238, 242, 255, 1)"></path><path d="M488.04 374.87L516.08 374.87L516.08 412.59L488.04 412.59z" fill="rgba(152, 165, 171, 1)"></path><path d="M962.68 123.25L1016.48 123.25L1016.48 153.78L962.68 153.78z" stroke="rgba(67, 56, 202, 1)"></path><path d="M173.18 422.61L180.86 422.61L180.86 430.29L173.18 430.29z" fill="rgba(165, 205, 255, 1)"></path><path d="M487.52 93.24L492.41 93.24L492.41 102.47L487.52 102.47z" stroke="rgba(152, 165, 171, 1)"></path><path d="M1100.74 507.85L1125.59 507.85L1125.59 532.7L1100.74 532.7z" stroke="rgba(67, 56, 202, 1)"></path><path d="M1341.79 20.98a22.72 22.72 0 1 0-33.37 30.85z" stroke="rgba(165, 205, 255, 1)"></path><path d="M1059.29 69.49a33.45 33.45 0 1 0-65.08-15.47z" stroke="rgba(238, 242, 255, 1)"></path><path d="M894.11 116.14a8.15 8.15 0 1 0-14.98 6.42z" stroke="rgba(152, 165, 171, 1)"></path><path d="M714 46.63L726.14 46.63L726.14 58.77L714 58.77z" stroke="rgba(67, 56, 202, 1)"></path><path d="M66.27 101.64a35.04 35.04 0 1 0 65.34 25.32z" stroke="rgba(67, 56, 202, 1)"></path><path d="M69.84 189.74L93.59 189.74L93.59 213.49L69.84 213.49z" stroke="rgba(67, 56, 202, 1)"></path><path d="M605.13 502.32 a41.67 41.67 0 1 0 83.34 0 a41.67 41.67 0 1 0 -83.34 0z" stroke="rgba(152, 165, 171, 1)"></path><path d="M167.82 98.23L221.24 98.23L221.24 151.65L167.82 151.65z" stroke="rgba(165, 205, 255, 1)"></path><path d="M516.73 314.27a9.97 9.97 0 1 0 0.84-19.93z" stroke="rgba(238, 242, 255, 1)"></path><path d="M1086.53 165.07a5.43 5.43 0 1 0 10.38-3.22z" fill="rgba(67, 56, 202, 1)"></path><path d="M1324.69 150.45a24.99 24.99 0 1 0-47.14 16.6z" stroke="rgba(67, 56, 202, 1)"></path><path d="M870.14 223.18 a26.31 26.31 0 1 0 52.62 0 a26.31 26.31 0 1 0 -52.62 0z" stroke="rgba(67, 56, 202, 1)"></path><path d="M904.41 247.27a32.37 32.37 0 1 0 61.78 19.32z" fill="rgba(67, 56, 202, 1)"></path><path d="M1203.05 554.89a12.82 12.82 0 1 0 23.74 9.7z" stroke="rgba(152, 165, 171, 1)"></path><path d="M1258.76 482.59L1299.08 482.59L1299.08 509.33L1258.76 509.33z" stroke="rgba(85, 98, 104, 1)"></path></g><defs><mask id="SvgjsMask1009"><rect width="1440" height="560" fill="#ffffff"></rect></mask></defs></svg>