<svg id="SvgjsSvg1001" width="288" height="288" xmlns="http://www.w3.org/2000/svg" version="1.1" xmlns:xlink="http://www.w3.org/1999/xlink" xmlns:svgjs="http://svgjs.com/svgjs">
    <defs id="SvgjsDefs1002"></defs>
    <g id="SvgjsG1008">
        <svg xmlns="http://www.w3.org/2000/svg" width="288" height="288" viewBox="0 0 700 700">
            <path d="m463.7 267.31c0.21094 0.42578 0.46094 0.82422 0.66016 1.2617 2.6836 5.7305 4.4023 11.688 5.1875 17.488 1.9492 0.54297 3.8594 1.2812 5.707 2.2695 13.77 7.3594 18.957 24.484 11.582 38.246-7.3516 13.754-24.477 18.938-38.242 11.574-13.758-7.3516-18.938-24.488-11.582-38.242 4.1289-7.7109 11.316-12.73 19.27-14.352-1.707-8.6953-6.1484-18.219-13.211-24.988-5.5-1.2773-11.137-2.1992-16.895-2.7266-0.5 22.879-76.172 79.027-76.172 79.027s-75.668-56.148-76.164-79.027c-4.043 0.37109-8.0352 0.93359-11.957 1.6758-8.6367 6.8945-14.711 16.773-16.379 24.793 3.0898 1.7422 5.5117 4.5938 6.8672 8.1016 11.762 5.1523 22.188 16.727 30.23 33.531 1.1875 2.4883 1.1875 5.3125 0.054688 7.7969 4.0977 10.27 6.6523 21.258 7.4609 31.242 2.7773-7 9.5742-11.977 17.555-11.977 10.426 0 18.918 8.4883 18.918 18.922v8.0703h46.832v-8.0703c0-10.434 8.4961-18.922 18.918-18.922 10.434 0 18.918 8.4883 18.918 18.922v8.0703h17.449c14.516 0 26.324 11.77 26.324 26.246v45.102c49.469-2.25 85.082-13.395 85.082-68.555 0-51.875-31.5-96.371-76.414-115.48z" fill="#362ddf" class="color000 svgShape"></path>
            <path d="M277.39 380c.11719-2.5039.15625-5.4023.15625-8.707 0-9.9922-2.5469-21.957-7-32.996-1.9922-.87891-3.625-2.4453-4.5586-4.4062-7.668-16.039-18.043-26-27.066-26-9.2188 0-20.098 10.746-27.727 27.391-1.043 2.2734-2.9727 4.0156-5.3086 4.8398-4.0781 10.672-6.3125 21.695-6.3125 31.168 0 7.2578.14453 15.23 1.9023 18.047.26172.42969.8125 1.293 3.9375 1.875 1.0859-.54297 2.2773-.81641 3.5117-.81641h11.703c4.1602 0 7.5703 3.2578 7.8125 7.3633l.015626.042969v.42188c0 4.3164-3.5117 7.8281-7.8281 7.8281h-11.703c-1.9219 0-3.7695-.72656-5.207-2.0117-4.207-.69922-9.7891-2.3516-13.223-7.8672-3.2578-5.2422-3.8516-12.48-3.8516-24.879 0-11.316 2.6758-24.336 7.543-36.766-.81641-2.2578-.72656-4.7227.27344-6.8945 4.8203-10.543 10.922-19.523 17.629-25.984 3.9102-3.7812 8.1133-6.7305 12.5-8.8047 1.4219-4.0039 4.2773-7.2305 7.8867-8.9766.82422-5.8398 3.1094-11.922 6.5508-17.703-46.355 18.441-79.141 63.699-79.141 116.62 0 55.164 35.609 66.305 85.074 68.555v-45.102c0-14.477 11.809-26.246 26.332-26.246h6.0977zM255.07 144.41c.066406.91406.14453 1.8125.23438 2.7109 6.0508 68.508 46.133 121.45 94.691 121.45 48.547 0 88.641-52.938 94.695-121.45.085938-.89453.15625-1.7969.23047-2.7109.42969-2.9688.71875-5.9805.89062-9.0312.11719-2.082.20312-4.1758.20312-6.3008 0-5.207-.375-10.332-1.0938-15.34-7.0156-48.539-46.844-85.734-94.926-85.734-48.074 0-87.902 37.195-94.926 85.742-.72266 5.0078-1.0938 10.129-1.0938 15.34 0 2.1211.085937 4.2188.19531 6.3008.18359 3.0508.46875 6.0547.89844 9.0312zm35.699-54.496s27.637 13.418 59.227 14.273c31.602-.86328 59.23-14.273 59.23-14.273 20.027 7.8945 10.535 64.211 10.535 64.215 5.0117-3.4883 9.5859-5.3047 13.316-6.2344-5.5 59.844-40.59 106-83.082 106-42.48 0-77.582-46.148-83.094-105.99 3.7344.93359 8.3281 2.75 13.324 6.2344 0-.007813-9.4883-56.32 10.543-64.219zM476.04 313.25c0 7.8047-6.3242 14.129-14.129 14.129-7.8008 0-14.125-6.3242-14.125-14.129 0-7.8008 6.3242-14.129 14.125-14.129 7.8047 0 14.129 6.3281 14.129 14.129" fill="#362ddf" class="color000 svgShape"></path>
            <path d="m428.7 398.84h-18.562c-2.5742 7.3906-9.5352 12.746-17.801 12.746-8.2539 0-15.223-5.3555-17.797-12.746h-49.078c-2.5742 7.3906-9.543 12.746-17.797 12.746-8.2617 0-15.223-5.3555-17.797-12.746h-18.562c-4.1367 0-7.4883 3.3164-7.4883 7.4023v118.36c0 4.0898 3.3555 7.3984 7.4883 7.3984h157.4c4.1367 0 7.4883-3.3086 7.4883-7.3984l-0.003906-118.36c0-4.0938-3.3516-7.4023-7.4883-7.4023zm-7.8789 104.75c0 5.2539-4.25 9.4961-9.4922 9.4961h-122.66c-5.2422 0-9.4961-4.25-9.4961-9.4961l-0.003907-71.613c0-5.2422 4.2578-9.4922 9.4961-9.4922h122.66c5.2461 0 9.4922 4.2578 9.4922 9.4922z" fill="#362ddf" class="color000 svgShape"></path>
            <path d="M318.54 429.8h-22.52c-2.957 0-5.3555 2.4062-5.3555 5.3633v22.52c0 2.9531 2.3984 5.3555 5.3555 5.3555h22.52c2.957 0 5.3555-2.4023 5.3555-5.3555v-22.52c-.003906-2.9531-2.3984-5.3633-5.3555-5.3633zM361.27 429.8h-22.523c-2.9609 0-5.3594 2.4062-5.3594 5.3633v22.52c0 2.9531 2.3984 5.3555 5.3594 5.3555h22.52c2.9531 0 5.3555-2.4023 5.3555-5.3555v-22.52c.003906-2.9531-2.3984-5.3633-5.3516-5.3633zM404 429.8h-22.523c-2.957 0-5.3594 2.4062-5.3594 5.3633v22.52c0 2.9531 2.4023 5.3555 5.3594 5.3555h22.52c2.957 0 5.3594-2.4023 5.3594-5.3555v-22.52c.003907-2.9531-2.3984-5.3633-5.3555-5.3633zM318.54 472.54h-22.52c-2.957 0-5.3555 2.4023-5.3555 5.3633v22.52c0 2.9531 2.3984 5.3555 5.3555 5.3555h22.52c2.957 0 5.3555-2.4023 5.3555-5.3555l-.003906-22.52c0-2.9609-2.3945-5.3633-5.3516-5.3633zM361.27 472.54h-22.523c-2.9609 0-5.3594 2.4023-5.3594 5.3633v22.52c0 2.9531 2.3984 5.3555 5.3594 5.3555h22.52c2.9531 0 5.3555-2.4023 5.3555-5.3555l-.003907-22.52c.007813-2.9609-2.3945-5.3633-5.3477-5.3633zM404 472.54h-22.523c-2.957 0-5.3594 2.4023-5.3594 5.3633v22.52c0 2.9531 2.4023 5.3555 5.3594 5.3555h22.52c2.957 0 5.3594-2.4023 5.3594-5.3555l-.003906-22.52c.007813-2.9609-2.3945-5.3633-5.3516-5.3633zM317.16 392.67v-20.738c0-5.2539-4.2578-9.4961-9.4961-9.4961-5.2422 0-9.4922 4.25-9.4922 9.4961v20.738c0 5.2422 4.25 9.4961 9.4922 9.4961 5.2422 0 9.4961-4.2578 9.4961-9.4961zM401.83 392.67v-20.738c0-5.2539-4.2578-9.4961-9.4961-9.4961-5.2422 0-9.4922 4.25-9.4922 9.4961v20.738c0 5.2422 4.25 9.4961 9.4922 9.4961 5.2422 0 9.4961-4.2578 9.4961-9.4961z" fill="#362ddf" class="color000 svgShape"></path>
        </svg>
    </g>
</svg>