<svg id="SvgjsSvg1014" width="288" height="288" xmlns="http://www.w3.org/2000/svg" version="1.1" xmlns:xlink="http://www.w3.org/1999/xlink" xmlns:svgjs="http://svgjs.com/svgjs"><defs id="SvgjsDefs1015"></defs><g id="SvgjsG1016"><svg xmlns="http://www.w3.org/2000/svg" width="288" height="288" version="1.0" viewBox="0 0 1280 1280"><g transform="matrix(.1 0 0 -.1 0 1280)" fill="#5a53de" class="color000 svgShape"><path d="M550 12465c-105-35-200-141-222-248-43-206 163-412 369-369 155 32 275 190 260 339-11 105-90 213-190 262-61 29-155 36-217 16zM1830 12465c-151-50-253-216-222-362 25-119 136-230 254-255 194-41 395 142 375 339-11 105-90 213-190 262-61 29-155 36-217 16zM3110 12465c-105-35-200-141-222-248-43-206 163-412 369-369 155 32 275 190 260 339-11 105-90 213-190 262-61 29-155 36-217 16zM4390 12465c-105-35-200-141-222-248-43-206 163-412 369-369 155 32 275 190 260 339-11 105-90 213-190 262-61 29-155 36-217 16zM5670 12465c-105-35-200-141-222-248-43-206 163-412 369-369 155 32 275 190 260 339-11 105-90 213-190 262-61 29-155 36-217 16zM6950 12465c-105-35-200-141-222-248-43-206 163-412 369-369 155 32 275 190 260 339-11 105-90 213-190 262-61 29-155 36-217 16zM8230 12465c-105-35-200-141-222-248-43-206 163-412 369-369 155 32 275 190 260 339-11 105-90 213-190 262-61 29-155 36-217 16zM9510 12465c-105-35-200-141-222-248-43-206 163-412 369-369 155 32 275 190 260 339-11 105-90 213-190 262-61 29-155 36-217 16zM10790 12465c-105-35-200-141-222-248-25-117 32-244 142-319 107-74 229-75 337-3 177 118 201 338 53 485-85 86-207 119-310 85zM12070 12465c-105-35-200-141-222-248-25-117 32-244 142-319 107-74 229-75 337-3 177 118 201 338 53 485-85 86-207 119-310 85zM550 11185c-105-35-200-141-222-248-43-206 163-412 369-369 155 32 275 190 260 339-11 105-90 213-190 262-61 29-155 36-217 16zM1830 11185c-151-50-253-216-222-362 25-119 136-230 254-255 194-41 395 142 375 339-11 105-90 213-190 262-61 29-155 36-217 16zM3110 11185c-105-35-200-141-222-248-43-206 163-412 369-369 155 32 275 190 260 339-11 105-90 213-190 262-61 29-155 36-217 16zM4390 11185c-105-35-200-141-222-248-43-206 163-412 369-369 155 32 275 190 260 339-11 105-90 213-190 262-61 29-155 36-217 16zM5670 11185c-105-35-200-141-222-248-43-206 163-412 369-369 155 32 275 190 260 339-11 105-90 213-190 262-61 29-155 36-217 16zM6950 11185c-105-35-200-141-222-248-43-206 163-412 369-369 155 32 275 190 260 339-11 105-90 213-190 262-61 29-155 36-217 16zM8230 11185c-105-35-200-141-222-248-43-206 163-412 369-369 155 32 275 190 260 339-11 105-90 213-190 262-61 29-155 36-217 16zM9510 11185c-105-35-200-141-222-248-43-206 163-412 369-369 155 32 275 190 260 339-11 105-90 213-190 262-61 29-155 36-217 16zM10790 11185c-105-35-200-141-222-248-25-117 32-244 142-319 107-74 229-75 337-3 177 118 201 338 53 485-85 86-207 119-310 85zM12070 11185c-105-35-200-141-222-248-25-117 32-244 142-319 107-74 229-75 337-3 177 118 201 338 53 485-85 86-207 119-310 85zM550 9905c-105-35-200-141-222-248-43-206 163-412 369-369 155 32 275 190 260 339-11 105-90 213-190 262-61 29-155 36-217 16zM1830 9905c-105-35-200-141-222-248-43-206 163-412 369-369 155 32 275 190 260 339-11 105-90 213-190 262-61 29-155 36-217 16zM3110 9905c-105-35-200-141-222-248-43-206 163-412 369-369 155 32 275 190 260 339-11 105-90 213-190 262-61 29-155 36-217 16zM4390 9905c-105-35-200-141-222-248-43-206 163-412 369-369 155 32 275 190 260 339-11 105-90 213-190 262-61 29-155 36-217 16zM5670 9905c-105-35-200-141-222-248-43-206 163-412 369-369 155 32 275 190 260 339-11 105-90 213-190 262-61 29-155 36-217 16zM6950 9905c-105-35-200-141-222-248-43-206 163-412 369-369 155 32 275 190 260 339-11 105-90 213-190 262-61 29-155 36-217 16zM8230 9905c-105-35-200-141-222-248-43-206 163-412 369-369 155 32 275 190 260 339-11 105-90 213-190 262-61 29-155 36-217 16zM9510 9905c-105-35-200-141-222-248-43-206 163-412 369-369 155 32 275 190 260 339-11 105-90 213-190 262-61 29-155 36-217 16zM10790 9905c-105-35-200-141-222-248-43-206 163-412 369-369 155 32 275 190 260 339-11 105-90 213-190 262-61 29-155 36-217 16zM12070 9905c-105-35-200-141-222-248-43-206 163-412 369-369 155 32 275 190 260 339-11 105-90 213-190 262-61 29-155 36-217 16zM550 8625c-105-35-200-141-222-248-43-206 163-412 369-369 155 32 275 190 260 339-11 105-90 213-190 262-61 29-155 36-217 16zM1830 8625c-105-35-200-141-222-248-43-206 163-412 369-369 155 32 275 190 260 339-11 105-90 213-190 262-61 29-155 36-217 16zM3110 8625c-105-35-200-141-222-248-43-206 163-412 369-369 155 32 275 190 260 339-11 105-90 213-190 262-61 29-155 36-217 16zM4390 8625c-105-35-200-141-222-248-43-206 163-412 369-369 155 32 275 190 260 339-11 105-90 213-190 262-61 29-155 36-217 16zM5670 8625c-105-35-200-141-222-248-43-206 163-412 369-369 155 32 275 190 260 339-11 105-90 213-190 262-61 29-155 36-217 16zM6950 8625c-105-35-200-141-222-248-43-206 163-412 369-369 155 32 275 190 260 339-11 105-90 213-190 262-61 29-155 36-217 16zM8230 8625c-105-35-200-141-222-248-43-206 163-412 369-369 155 32 275 190 260 339-11 105-90 213-190 262-61 29-155 36-217 16zM9510 8625c-105-35-200-141-222-248-43-206 163-412 369-369 155 32 275 190 260 339-11 105-90 213-190 262-61 29-155 36-217 16zM10790 8625c-105-35-200-141-222-248-43-206 163-412 369-369 155 32 275 190 260 339-11 105-90 213-190 262-61 29-155 36-217 16zM12070 8625c-105-35-200-141-222-248-43-206 163-412 369-369 155 32 275 190 260 339-11 105-90 213-190 262-61 29-155 36-217 16zM550 7345c-105-35-200-141-222-248-43-206 163-412 369-369 155 32 275 190 260 339-11 105-90 213-190 262-61 29-155 36-217 16zM1830 7345c-105-35-200-141-222-248-43-206 163-412 369-369 155 32 275 190 260 339-11 105-90 213-190 262-61 29-155 36-217 16zM3110 7345c-105-35-200-141-222-248-43-206 163-412 369-369 155 32 275 190 260 339-11 105-90 213-190 262-61 29-155 36-217 16zM4390 7345c-105-35-200-141-222-248-43-206 163-412 369-369 155 32 275 190 260 339-11 105-90 213-190 262-61 29-155 36-217 16zM5670 7345c-105-35-200-141-222-248-43-206 163-412 369-369 155 32 275 190 260 339-11 105-90 213-190 262-61 29-155 36-217 16zM6950 7345c-105-35-200-141-222-248-43-206 163-412 369-369 155 32 275 190 260 339-11 105-90 213-190 262-61 29-155 36-217 16zM8230 7345c-105-35-200-141-222-248-43-206 163-412 369-369 155 32 275 190 260 339-11 105-90 213-190 262-61 29-155 36-217 16zM9510 7345c-105-35-200-141-222-248-43-206 163-412 369-369 155 32 275 190 260 339-11 105-90 213-190 262-61 29-155 36-217 16zM10790 7345c-105-35-200-141-222-248-43-206 163-412 369-369 155 32 275 190 260 339-11 105-90 213-190 262-61 29-155 36-217 16zM12070 7345c-105-35-200-141-222-248-43-206 163-412 369-369 155 32 275 190 260 339-11 105-90 213-190 262-61 29-155 36-217 16zM550 6065c-105-35-200-141-222-248-43-206 163-412 369-369 155 32 275 190 260 339-11 105-90 213-190 262-61 29-155 36-217 16zM1830 6065c-105-35-200-141-222-248-43-206 163-412 369-369 155 32 275 190 260 339-11 105-90 213-190 262-61 29-155 36-217 16zM3110 6065c-105-35-200-141-222-248-43-206 163-412 369-369 155 32 275 190 260 339-11 105-90 213-190 262-61 29-155 36-217 16zM4390 6065c-105-35-200-141-222-248-43-206 163-412 369-369 155 32 275 190 260 339-11 105-90 213-190 262-61 29-155 36-217 16zM5670 6065c-105-35-200-141-222-248-43-206 163-412 369-369 155 32 275 190 260 339-11 105-90 213-190 262-61 29-155 36-217 16zM6950 6065c-105-35-200-141-222-248-43-206 163-412 369-369 155 32 275 190 260 339-11 105-90 213-190 262-61 29-155 36-217 16zM8230 6065c-105-35-200-141-222-248-43-206 163-412 369-369 155 32 275 190 260 339-11 105-90 213-190 262-61 29-155 36-217 16zM9510 6065c-105-35-200-141-222-248-43-206 163-412 369-369 155 32 275 190 260 339-11 105-90 213-190 262-61 29-155 36-217 16zM10790 6065c-105-35-200-141-222-248-43-206 163-412 369-369 155 32 275 190 260 339-11 105-90 213-190 262-61 29-155 36-217 16zM12070 6065c-105-35-200-141-222-248-43-206 163-412 369-369 155 32 275 190 260 339-11 105-90 213-190 262-61 29-155 36-217 16zM550 4785c-105-35-200-141-222-248-43-206 163-412 369-369 155 32 275 190 260 339-11 105-90 213-190 262-61 29-155 36-217 16zM1830 4785c-105-35-200-141-222-248-43-206 163-412 369-369 155 32 275 190 260 339-11 105-90 213-190 262-61 29-155 36-217 16zM3110 4785c-105-35-200-141-222-248-25-117 32-244 142-319 107-74 229-75 337-3 177 118 201 338 53 485-85 86-207 119-310 85zM4390 4785c-105-35-200-141-222-248-25-117 32-244 142-319 107-74 229-75 337-3 177 118 201 338 53 485-85 86-207 119-310 85zM5670 4785c-151-50-253-216-222-362 25-119 136-230 255-255 193-41 394 142 374 339-11 105-90 213-190 262-61 29-155 36-217 16zM6950 4785c-151-50-253-216-222-362 25-119 136-230 255-255 193-41 394 142 374 339-11 105-90 213-190 262-61 29-155 36-217 16zM8230 4785c-151-50-253-216-222-362 25-119 136-230 255-255 193-41 394 142 374 339-11 105-90 213-190 262-61 29-155 36-217 16zM9510 4785c-151-50-253-216-222-362 25-119 136-230 255-255 193-41 394 142 374 339-11 105-90 213-190 262-61 29-155 36-217 16zM10790 4785c-105-35-200-141-222-248-43-206 163-412 369-369 155 32 275 190 260 339-11 105-90 213-190 262-61 29-155 36-217 16zM12070 4785c-105-35-200-141-222-248-43-206 163-412 369-369 155 32 275 190 260 339-11 105-90 213-190 262-61 29-155 36-217 16zM550 3505c-105-35-200-141-222-248-43-206 163-412 369-369 155 32 275 190 260 339-11 105-90 213-190 262-61 29-155 36-217 16zM1830 3505c-105-35-200-141-222-248-43-206 163-412 369-369 155 32 275 190 260 339-11 105-90 213-190 262-61 29-155 36-217 16zM3110 3505c-105-35-200-141-222-248-25-117 32-244 142-319 107-74 229-75 337-3 177 118 201 338 53 485-85 86-207 119-310 85zM4390 3505c-105-35-200-141-222-248-25-117 32-244 142-319 107-74 229-75 337-3 177 118 201 338 53 485-85 86-207 119-310 85zM5670 3505c-151-50-253-216-222-362 25-119 136-230 255-255 193-41 394 142 374 339-11 105-90 213-190 262-61 29-155 36-217 16zM6950 3505c-151-50-253-216-222-362 25-119 136-230 255-255 193-41 394 142 374 339-11 105-90 213-190 262-61 29-155 36-217 16zM8230 3505c-151-50-253-216-222-362 25-119 136-230 255-255 193-41 394 142 374 339-11 105-90 213-190 262-61 29-155 36-217 16zM9510 3505c-151-50-253-216-222-362 25-119 136-230 255-255 193-41 394 142 374 339-11 105-90 213-190 262-61 29-155 36-217 16zM10790 3505c-105-35-200-141-222-248-43-206 163-412 369-369 155 32 275 190 260 339-11 105-90 213-190 262-61 29-155 36-217 16zM12070 3505c-105-35-200-141-222-248-43-206 163-412 369-369 155 32 275 190 260 339-11 105-90 213-190 262-61 29-155 36-217 16zM550 2225c-105-35-200-141-222-248-43-206 163-412 369-369 155 32 275 190 260 339-11 105-90 213-190 262-61 29-155 36-217 16zM1830 2225c-105-35-200-141-222-248-43-206 163-412 369-369 155 32 275 190 260 339-11 105-90 213-190 262-61 29-155 36-217 16zM3110 2225c-105-35-200-141-222-248-25-117 32-244 142-319 107-74 229-75 337-3 177 118 201 338 53 485-85 86-207 119-310 85zM4390 2225c-105-35-200-141-222-248-25-117 32-244 142-319 107-74 229-75 337-3 177 118 201 338 53 485-85 86-207 119-310 85zM5670 2225c-105-35-200-141-222-248-43-206 163-412 369-369 155 32 275 190 260 339-11 105-90 213-190 262-61 29-155 36-217 16zM6950 2225c-105-35-200-141-222-248-43-206 163-412 369-369 155 32 275 190 260 339-11 105-90 213-190 262-61 29-155 36-217 16zM8230 2225c-105-35-200-141-222-248-43-206 163-412 369-369 155 32 275 190 260 339-11 105-90 213-190 262-61 29-155 36-217 16zM9510 2225c-105-35-200-141-222-248-43-206 163-412 369-369 155 32 275 190 260 339-11 105-90 213-190 262-61 29-155 36-217 16zM10790 2225c-105-35-200-141-222-248-43-206 163-412 369-369 155 32 275 190 260 339-11 105-90 213-190 262-61 29-155 36-217 16zM12070 2225c-105-35-200-141-222-248-43-206 163-412 369-369 155 32 275 190 260 339-11 105-90 213-190 262-61 29-155 36-217 16zM550 945c-105-35-200-141-222-248-43-206 163-412 369-369 155 32 275 190 260 339-11 105-90 213-190 262-61 29-155 36-217 16zM1830 945c-105-35-200-141-222-248-43-206 163-412 369-369 155 32 275 190 260 339-11 105-90 213-190 262-61 29-155 36-217 16zM3110 945c-105-35-200-141-222-248-43-206 163-412 369-369 155 32 275 190 260 339-11 105-90 213-190 262-61 29-155 36-217 16zM4390 945c-105-35-200-141-222-248-43-206 163-412 369-369 155 32 275 190 260 339-11 105-90 213-190 262-61 29-155 36-217 16zM5670 945c-105-35-200-141-222-248-43-206 163-412 369-369 155 32 275 190 260 339-11 105-90 213-190 262-61 29-155 36-217 16zM6950 945c-105-35-200-141-222-248-43-206 163-412 369-369 155 32 275 190 260 339-11 105-90 213-190 262-61 29-155 36-217 16zM8230 945c-105-35-200-141-222-248-43-206 163-412 369-369 155 32 275 190 260 339-11 105-90 213-190 262-61 29-155 36-217 16zM9510 945c-105-35-200-141-222-248-43-206 163-412 369-369 155 32 275 190 260 339-11 105-90 213-190 262-61 29-155 36-217 16zM10790 945c-105-35-200-141-222-248-43-206 163-412 369-369 155 32 275 190 260 339-11 105-90 213-190 262-61 29-155 36-217 16zM12070 945c-105-35-200-141-222-248-43-206 163-412 369-369 155 32 275 190 260 339-11 105-90 213-190 262-61 29-155 36-217 16z" fill="#5a53de" class="color000 svgShape"></path></g></svg></g></svg>