<svg id="SvgjsSvg1001" width="288" height="288" xmlns="http://www.w3.org/2000/svg" version="1.1" xmlns:xlink="http://www.w3.org/1999/xlink" xmlns:svgjs="http://svgjs.com/svgjs"><defs id="SvgjsDefs1002"></defs><g id="SvgjsG1008"><svg xmlns="http://www.w3.org/2000/svg" xmlns:svgjs="http://svgjs.com/svgjs" xmlns:xlink="http://www.w3.org/1999/xlink" width="288" height="288"><svg xmlns="http://www.w3.org/2000/svg" width="288" height="288" enable-background="new 0 0 455 455" viewBox="0 0 455 455"><polygon fill="#485359" points="0 40.196 0 285.375 136.195 162.785" class="color000 svgShape color364f6b"></polygon><polygon fill="#485359" points="372.579 20.014 22.421 20.014 197.5 177.604" class="color000 svgShape color364f6b"></polygon><path fill="#485359" d="M292.508,193.121c4.592-6.906,10.017-13.312,16.225-19.056c19.47-18.016,44.78-27.938,71.267-27.938		c5.093,0,10.099,0.372,15,1.076V40.196L258.806,162.785L292.508,193.121z" class="color000 svgShape color364f6b"></path><path fill="#485359" d="M380,176.127c-41.355,0-75,33.645-75,75v78.859c0,24.813,20.187,45,45,45s45-20.187,45-45v-78.859h-30v78.859
		c0,8.271-6.729,15-15,15s-15-6.729-15-15v-78.859c0-24.813,20.187-45,45-45s45,20.187,45,45v78.859c0,41.355-33.645,75-75,75
		s-75-33.645-75-75l0.259-86.358l0.103-1.239c0.591-7.115,1.922-14.082,3.901-20.828l-42.878-38.595l-38.885,35l-38.884-35
		L22.421,305.556H245v24.43c0,57.897,47.103,105,105,105s105-47.103,105-105v-78.859C455,209.772,421.355,176.127,380,176.127z" class="color000 svgShape color364f6b"></path></svg></svg></g></svg>