<svg id="SvgjsSvg1015" width="288" height="288" xmlns="http://www.w3.org/2000/svg" version="1.1" xmlns:xlink="http://www.w3.org/1999/xlink" xmlns:svgjs="http://svgjs.com/svgjs">
    <defs id="SvgjsDefs1016"></defs>
    <g id="SvgjsG1017">
        <svg xmlns="http://www.w3.org/2000/svg" width="288" height="288" viewBox="0 0 700 700">
            <path d="m436.18 130.37v-16.801l-28-26.938v2.9727c-0.027344 1.8711-0.80078 3.6523-2.1445 4.957-1.3438 1.3008-3.1523 2.0156-5.0234 1.9844-1.8398 0.015625-3.6211-0.66406-4.9844-1.9023l42 40.375c-1.1953-1.25-1.8594-2.918-1.8477-4.6484zm46.09 27.664-31.473-30.52-14.617-13.832-28-26.938-14.391-13.941-18.258-17.473c-0.20703-0.25781-0.43359-0.5-0.67188-0.72656l-19.711-18.984c-0.92969-0.98047-2.1133-1.6758-3.418-2.0156-0.57422-0.066406-1.1562-0.066406-1.7344 0-1.9453-0.011718-3.8242 0.70703-5.2656 2.0156l-19.598 18.984c-0.23828 0.22656-0.46484 0.46875-0.67188 0.72656l-106.74 102.7c-1.3633 1.2539-2.1406 3.0195-2.1406 4.8711 0 1.8555 0.77734 3.6211 2.1406 4.875l19.711 19.039h0.003906c1.375 1.3008 3.1992 2.0195 5.0938 2.0156 0.74219 0.003907 1.4805-0.10938 2.1836-0.33594 1.0977-0.3125 2.0977-0.88672 2.9141-1.6797l11.535-11.199 90.832-87.25 90.832 87.359 11.535 11.199v0.003907c0.82031 0.78906 1.8203 1.3672 2.9141 1.6797 2.5508 0.79688 5.3359 0.15234 7.2773-1.6797l19.715-18.93c1.4414-1.2539 2.2695-3.0742 2.2695-4.9844s-0.82812-3.7305-2.2695-4.9844zm-24.809 14.055-4.3125-4.0859-98.055-94.359c-2.8672-2.6875-7.3281-2.6875-10.195 0l-98.055 94.359-4.3125 4.1445-9.5195-9.1836 102.31-98.504c0.25391-0.21484 0.47656-0.46094 0.67188-0.73047l14-13.328 14 13.441c0.19531 0.26953 0.41797 0.51172 0.67188 0.72656l31.137 29.902 42 40.375 0.67188 0.61719 28.336 27.273z" fill="#362ddf" class="color000 svgShape"></path>
            <path d="M259.17 172.87v100.18c0 3.9922-3.2344 7.2266-7.2227 7.2266-3.9922 0-7.2266-3.2344-7.2266-7.2266v-100.18c-.011719-1.8672.76172-3.6562 2.1289-4.9258 1.3828-1.2969 3.2031-2.0156 5.0977-2.0156 1.8789-.046876 3.6992.66016 5.0586 1.9648 1.3555 1.3047 2.1367 3.0977 2.1641 4.9766zM455.28 172.87v39.93c0 3.9883-3.2344 7.2227-7.2266 7.2227-3.9883 0-7.2227-3.2344-7.2227-7.2227v-39.93c.027344-1.8789.80859-3.6719 2.1641-4.9766 1.3594-1.3047 3.1797-2.0117 5.0586-1.9648 1.8945 0 3.7148.71875 5.0977 2.0156 1.3672 1.2695 2.1406 3.0586 2.1289 4.9258zM448.05 236.6c1.918 0 3.7539.75781 5.1094 2.1133 1.3555 1.3555 2.1172 3.1914 2.1172 5.1094v29.23c0 3.9922-3.2344 7.2266-7.2266 7.2266-3.9883 0-7.2227-3.2344-7.2227-7.2266v-29.23c0-3.9883 3.2344-7.2227 7.2227-7.2227zM443.35 137.31c-1.8711.03125-3.6758-.68359-5.0234-1.9883-1.3438-1.3008-2.1133-3.0859-2.1445-4.957v-72.297h-28v31.531c-.32812 3.7266-3.4531 6.5859-7.1953 6.5859-3.7422 0-6.8672-2.8594-7.1953-6.5859v-38.473c.042969-1.8711.82812-3.6484 2.1836-4.9414 1.3555-1.293 3.168-1.9922 5.0391-1.9492h42.336c1.9102-.10547 3.7812.56641 5.1836 1.8672 1.4062 1.2969 2.2227 3.1094 2.2656 5.0234v79.238c-.042969 1.918-.85938 3.7344-2.2617 5.043-1.4023 1.3086-3.2734 1.9922-5.1875 1.9023z" fill="#362ddf" class="color000 svgShape"></path>
            <path d="M233.91 266.17h42.168c3.7422.089843 6.7227 3.1484 6.7227 6.8867.03125 3.7617-2.9609 6.8555-6.7227 6.9453h-42.168c-1.9414.17578-3.8672-.47656-5.3047-1.7891-1.4414-1.3164-2.2617-3.1758-2.2617-5.125 0-1.9531.82031-3.8125 2.2617-5.1289 1.4375-1.3125 3.3633-1.9648 5.3047-1.7891zM473.2 273.05c-.0625 3.875-3.2344 6.9766-7.1094 6.9453h-161.79c-1.8359 0-3.5977-.73438-4.8906-2.0391-1.293-1.3008-2.0117-3.0703-2-4.9062 0-3.8047 3.0859-6.8867 6.8906-6.8867h161.79c1.8555-.03125 3.6484.67969 4.9805 1.9727 1.3359 1.2891 2.1016 3.0586 2.1289 4.9141zM192.02 453.6l20.777 6.7188c3.9531 1.3086 6.1211 5.5469 4.8711 9.5195-.61328 1.9062-1.9648 3.4883-3.7539 4.3945-1.7891.90625-3.8633 1.0547-5.7656.42188l-20.945-6.7773c-5.9648-1.9414-12.457-1.4805-18.086 1.2891l-54.32 26.824c-1.8008.98047-3.9219 1.1953-5.8789.59766-1.9609-.60156-3.5977-1.9688-4.5391-3.7891-.88281-1.7891-1.0117-3.8555-.35937-5.7383.65234-1.8867 2.0312-3.4297 3.832-4.2852l54.434-26.656c9.2109-4.6523 19.871-5.5547 29.734-2.5195zM584.41 386.06l-174.77 127.74c-5.6484 4.1289-12.008 7.1875-18.762 9.0156l-8.2891 2.2383h.003906c-3.2109.89453-6.5273 1.3477-9.8594 1.3438-3.918 0-7.8125-.625-11.535-1.8477l-106.73-34.605c-3.9531-1.3086-6.125-5.5508-4.8711-9.5195.61328-1.9102 1.9648-3.4922 3.7539-4.3945 1.7891-.90625 3.8633-1.0586 5.7656-.42188l106.9 34.719c4.0508 1.293 8.3867 1.3906 12.488.28125l8.2891-2.2969c4.8984-1.332 9.5117-3.5508 13.605-6.5508l174.89-127.74c4.7461-3.3203 6.9688-9.2109 5.5977-14.84l-1.8477-6.3828c-1.1289-4.3828-5.1055-7.4336-9.6328-7.3945-.8125 0-1.6094.23047-2.293.67188l-26.715 16.129-138.71 84.395c-2.3789 1.3477-5.293 1.3477-7.6719 0l-58.07-31.25-1.625-.95312c-1.7656-.93359-3.082-2.543-3.6523-4.4609-.56641-1.9141-.33984-3.9805.62891-5.7305 1.3828-2.3984 3.9492-3.8711 6.7188-3.8633 1.1914.054688 2.3555.35938 3.418.89453l25.367 13.664 30.574 16.801 28.84-17.586 36.512-22.398 65.52-39.871 13.609-8.2891 17.137-10.414c3.1523-1.8594 6.7578-2.8086 10.414-2.7461 5.5742-.050782 11.008 1.7617 15.43 5.1484 4.4258 3.3906 7.5898 8.1641 8.9883 13.559l1.6797 6.6094v-.003906c1.3867 5.5898 1.0703 11.465-.90625 16.871-1.9727 5.4102-5.5195 10.102-10.184 13.48z" fill="#362ddf" class="color000 svgShape"></path>
            <path d="m338.13 415.41-40.543-1.3984c-4.1445 0-7.5078-3.3594-7.5078-7.5039 0-4.1445 3.3633-7.5039 7.5078-7.5039h0.28125l40.098 1.3984 99.121-1.6797h-0.007813c5.3789-0.058594 9.8477-4.1641 10.363-9.5195l0.89453-10.191c0.42578-4.5352-2.8633-8.5703-7.3906-9.0703l-190.85-23.801c-3.7656-0.50391-7.5977-0.13672-11.203 1.0625l-125.21 41.777c-3.957 1.3789-8.2891-0.69531-9.6875-4.6484-0.64063-1.9023-0.49609-3.9766 0.39453-5.7734 0.89453-1.7969 2.4648-3.1641 4.3672-3.8008l125.32-41.777c5.7695-1.9062 11.891-2.5195 17.922-1.793l191.13 23.855c6.0625 0.67969 11.621 3.6992 15.492 8.418 3.8711 4.7148 5.7461 10.758 5.2266 16.84l-0.89453 10.191c-0.59766 6.3203-3.5156 12.191-8.1914 16.484-4.6719 4.293-10.773 6.6992-17.121 6.7539z" fill="#362ddf" class="color000 svgShape"></path>
            <path d="m434 368.98c-3.0898 0.007813-5.875-1.8516-7.0547-4.7031-0.75-1.8633-0.72266-3.9492 0.078126-5.793 0.80078-1.8398 2.3047-3.2852 4.1758-4.0078l74.48-28.953c5.7305-1.9883 11.965-1.9883 17.695 0 5.8672 1.9922 10.977 5.7539 14.617 10.77 3.6406 5.0156 5.6367 11.035 5.7109 17.23v2.4102c-0.33984 3.9688-3.6602 7.0156-7.6445 7.0156-3.9805 0-7.3008-3.0469-7.6445-7.0156v-2.4102c-0.023437-3.0977-1.0117-6.1094-2.8281-8.6211-1.8164-2.5078-4.3711-4.3867-7.3047-5.3789-2.3633-0.78516-4.918-0.78516-7.2812 0l-73.922 28.953c-0.98438 0.35547-2.0273 0.52734-3.0781 0.50391z" fill="#362ddf" class="color000 svgShape"></path>
        </svg>

    </g>
</svg>