<svg id="SvgjsSvg1024" width="288" height="288" xmlns="http://www.w3.org/2000/svg" version="1.1" xmlns:xlink="http://www.w3.org/1999/xlink" xmlns:svgjs="http://svgjs.com/svgjs"><defs id="SvgjsDefs1025"></defs><g id="SvgjsG1026"><svg xmlns="http://www.w3.org/2000/svg" width="288" height="288" viewBox="0 0 700 700"><path d="M416.06 425.43c-9.0352 0-17.383 4.8203-21.898 12.645-4.5195 7.8242-4.5195 17.461 0 25.285 4.5156 7.8242 12.863 12.645 21.898 12.645s17.383-4.8203 21.898-12.645c4.5195-7.8242 4.5195-17.461 0-25.285-4.5156-7.8242-12.863-12.645-21.898-12.645zM158.46 351.66c2.6602.050782 5.1992-1.1055 6.9023-3.1484 1.6992-2.043 2.3828-4.75 1.8477-7.3516h4.8125c1.5586 11.367 6.0508 22.133 13.039 31.234l-7.9609 7.9609-3.2383-3.2383v.003906c-3.4062-3.4297-8.9492-3.4492-12.383-.042969-3.4297 3.4062-3.4492 8.9492-.042969 12.379l19.164 19.074v.003906c3.4688 2.9727 8.6445 2.7734 11.879-.46094 3.2305-3.2305 3.4297-8.4062.45703-11.879l-3.5-3.5 7.9609-7.9609c9.125 7.0039 19.926 11.5 31.328 13.035v4.7266c-4.8359-.33984-9.0273 3.3047-9.3633 8.1367-.33984 4.832 3.3047 9.0234 8.1367 9.3633h20.824c4.832-.48438 8.3594-4.793 7.875-9.625s-4.793-8.3594-9.625-7.875v-4.8125c11.215-1.5117 21.852-5.8789 30.887-12.688l9.3633 9.4492-3.9375 3.9375c-2.2539 2.4805-2.8906 6.0312-1.6445 9.1445 1.25 3.1094 4.1641 5.2344 7.5078 5.4688 2.3242.011719 4.5625-.89844 6.2109-2.5391l20.477-20.477v.003906c3.4062-3.4336 3.3867-8.9766-.042969-12.383-3.4336-3.4062-8.9766-3.3867-12.383.042969l-4.1133 4.1133-9.4492-9.3633c7.1016-9.0391 11.715-19.777 13.387-31.148h4.8125c-.43359 4.832 3.1328 9.1016 7.9648 9.5391 4.832.43359 9.1016-3.1328 9.5352-7.9648v-21c-.50391-4.832-4.8359-8.3359-9.668-7.832-4.832.50781-8.3359 4.8359-7.832 9.6719h-4.8125c-1.5352-11.402-6.0312-22.203-13.035-31.328l10.676-10.676 4.5508 4.5508h-.003906c3.4102 3.4336 8.9531 3.4531 12.383.046874 3.4297-3.4102 3.4492-8.9531.042969-12.383l-21.789-21.789h.003906c-3.4336-3.4062-8.9766-3.3867-12.383.046874-3.4062 3.4297-3.3867 8.9727.042969 12.379l4.8125 4.8125-10.676 10.676c-9.0859-7-19.863-11.469-31.234-12.949v-4.5508c4.832.43359 9.1016-3.1289 9.5352-7.9609.4375-4.8359-3.1289-9.1055-7.9609-9.5391h-20.914c-4.832.50781-8.3359 4.8359-7.832 9.668.50781 4.832 4.8359 8.3398 9.6719 7.832v4.8984c-11.371 1.3672-22.18 5.7109-31.328 12.602l-6.6484-6.7383 2.625-2.625c3.4062-3.4297 3.3867-8.9727-.042969-12.379-3.4336-3.4102-8.9766-3.3906-12.383.042969l-17.5 17.5c-3.5742 3.332-3.7695 8.9375-.4375 12.512 3.3359 3.5742 8.9375 3.7734 12.512.4375l2.8008-2.8008 6.7383 6.6484v.003906c-6.9766 9.0742-11.473 19.809-13.039 31.148h-4.8125c.4375-4.832-3.1289-9.1016-7.9609-9.5391-4.832-.43359-9.1016 3.1328-9.5391 7.9648v20.824c.050781 4.7969 3.9531 8.6641 8.75 8.6641z" fill="#362ddf" class="color000 svgShape"></path><path d="m548.1 491.49h-16.453c-1.1211-14.734-5.0703-29.113-11.637-42.352 48.738-154.88-53.199-326.64-212.27-356.21l3.6758-19.949c0.43359-2.2891-0.0625-4.6523-1.375-6.5742s-3.3398-3.2422-5.625-3.6641l-7.6133-1.4883 2.8867-15.75c0.85156-4.7305-2.2734-9.2656-7-10.148l-48.738-9.1016c-4.7305-0.85156-9.2617 2.2734-10.148 7l-2.8867 15.75-7.6992-1.3984h-0.003906c-4.7305-0.85156-9.2617 2.2734-10.148 7l-22.574 121.89c-0.85156 4.7305 2.2734 9.2617 7 10.148l15.75 2.9766c-0.4375 5.25-5.1641 18.199-1.4883 22.227v-0.003906c1.3047 1.9219 3.3203 3.2422 5.6016 3.6758l32.461 6.0391c2.2852 0.43359 4.6523-0.058593 6.5742-1.375 1.9219-1.3125 3.2383-3.3359 3.6641-5.625l2.8867-15.75 15.75 2.8867h1.5742c4.2812 0.070312 7.9805-2.9648 8.75-7.1758l3.5-19.512c47.633 10.098 89.832 37.496 118.44 76.898 28.605 39.402 41.59 88.008 36.438 136.43-23.156-6.4023-47.73-5.4727-70.34 2.6602s-42.145 23.066-55.922 42.754h-169.23c-4.832 0-8.75 3.918-8.75 8.75s3.918 8.75 8.75 8.75h159.08c-5.8984 12.68-9.4844 26.309-10.59 40.25h-148.75c-4.832 0-8.75 3.918-8.75 8.75v24.762c0 2.3203 0.92188 4.5469 2.5625 6.1875s3.8672 2.5625 6.1875 2.5625h396.46c2.3203 0 4.543-0.92188 6.1875-2.5625 1.6406-1.6406 2.5625-3.8672 2.5625-6.1875v-24.762c0-2.3203-0.92187-4.5469-2.5625-6.1875-1.6445-1.6406-3.8672-2.5625-6.1875-2.5625zm-274.84-308.61-63.961-11.812 19.336-105 63.965 12.688zm44.625 308.61c14-119.09 182.35-119 196.26 0z" fill="#362ddf" class="color000 svgShape"></path></svg></g></svg>