<?xml version="1.0" standalone="no"?><svg xmlns:xlink="http://www.w3.org/1999/xlink" xmlns="http://www.w3.org/2000/svg" viewBox="0 0 1000 562.5014408336087" preserveAspectRatio="xMaxYMax slice"><g transform="scale(0.7684445913027441)"><rect x="0" y="0" width="1301.3333333333333" height="732" fill="#ffffff"/><circle cx="40.665" cy="40.665" r="8.135" fill="#fffafc"/><circle cx="122.00500000000001" cy="40.665" r="8.135" fill="#9babf2"/><circle cx="203.33499999999998" cy="40.665" r="8.135" fill="#a0b0f3"/><circle cx="284.66499999999996" cy="40.665" r="8.135" fill="#fff7f9"/><circle cx="366.005" cy="40.665" r="8.135" fill="#7990ee"/><circle cx="447.335" cy="40.665" r="8.135" fill="#889cf0"/><circle cx="528.665" cy="40.665" r="8.135" fill="#ff5c83"/><circle cx="610.005" cy="40.665" r="8.135" fill="#c0caf7"/><circle cx="691.335" cy="40.665" r="8.135" fill="#3a5be5"/><circle cx="772.665" cy="40.665" r="8.135" fill="#ffa3b9"/><circle cx="854.005" cy="40.665" r="8.135" fill="#637eeb"/><circle cx="935.335" cy="40.665" r="8.135" fill="#cad3f8"/><circle cx="1016.665" cy="40.665" r="8.135" fill="#ffebef"/><circle cx="1098.0049999999999" cy="40.665" r="8.135" fill="#9bacf2"/><circle cx="1179.335" cy="40.665" r="8.135" fill="#607bea"/><circle cx="1260.665" cy="40.665" r="8.135" fill="#ffb9ca"/><circle cx="40.665" cy="122.00500000000001" r="8.135" fill="#9bacf2"/><circle cx="122.00500000000001" cy="122.00500000000001" r="8.135" fill="#d0d8f9"/><circle cx="203.33499999999998" cy="122.00500000000001" r="8.135" fill="#6c85ec"/><circle cx="284.66499999999996" cy="122.00500000000001" r="8.135" fill="#ff5b82"/><circle cx="366.005" cy="122.00500000000001" r="8.135" fill="#fff1f4"/><circle cx="447.335" cy="122.00500000000001" r="8.135" fill="#fffdfd"/><circle cx="528.665" cy="122.00500000000001" r="8.135" fill="#ff92ac"/><circle cx="610.005" cy="122.00500000000001" r="8.135" fill="#ff6288"/><circle cx="691.335" cy="122.00500000000001" r="8.135" fill="#8196ef"/><circle cx="772.665" cy="122.00500000000001" r="8.135" fill="#ffa7bc"/><circle cx="854.005" cy="122.00500000000001" r="8.135" fill="#ff8ea9"/><circle cx="935.335" cy="122.00500000000001" r="8.135" fill="#6e86ec"/><circle cx="1016.665" cy="122.00500000000001" r="8.135" fill="#ff7c9b"/><circle cx="1098.0049999999999" cy="122.00500000000001" r="8.135" fill="#e9edfc"/><circle cx="1179.335" cy="122.00500000000001" r="8.135" fill="#ffc9d6"/><circle cx="1260.665" cy="122.00500000000001" r="8.135" fill="#ffd0db"/><circle cx="40.665" cy="203.33499999999998" r="8.135" fill="#ffc1d0"/><circle cx="122.00500000000001" cy="203.33499999999998" r="8.135" fill="#4a68e7"/><circle cx="203.33499999999998" cy="203.33499999999998" r="8.135" fill="#ffaabe"/><circle cx="284.66499999999996" cy="203.33499999999998" r="8.135" fill="#ff527b"/><circle cx="366.005" cy="203.33499999999998" r="8.135" fill="#ffb5c6"/><circle cx="447.335" cy="203.33499999999998" r="8.135" fill="#9eaef2"/><circle cx="528.665" cy="203.33499999999998" r="8.135" fill="#fff7f9"/><circle cx="610.005" cy="203.33499999999998" r="8.135" fill="#ff96af"/><circle cx="691.335" cy="203.33499999999998" r="8.135" fill="#fdfdff"/><circle cx="772.665" cy="203.33499999999998" r="8.135" fill="#4262e6"/><circle cx="854.005" cy="203.33499999999998" r="8.135" fill="#ff90ab"/><circle cx="935.335" cy="203.33499999999998" r="8.135" fill="#a4b3f3"/><circle cx="1016.665" cy="203.33499999999998" r="8.135" fill="#ffc9d6"/><circle cx="1098.0049999999999" cy="203.33499999999998" r="8.135" fill="#4464e7"/><circle cx="1179.335" cy="203.33499999999998" r="8.135" fill="#ffd0db"/><circle cx="1260.665" cy="203.33499999999998" r="8.135" fill="#92a4f1"/><circle cx="40.665" cy="284.66499999999996" r="8.135" fill="#dce2fa"/><circle cx="122.00500000000001" cy="284.66499999999996" r="8.135" fill="#ff90aa"/><circle cx="203.33499999999998" cy="284.66499999999996" r="8.135" fill="#ffe9ef"/><circle cx="284.66499999999996" cy="284.66499999999996" r="8.135" fill="#97a9f1"/><circle cx="366.005" cy="284.66499999999996" r="8.135" fill="#ff698d"/><circle cx="447.335" cy="284.66499999999996" r="8.135" fill="#ffdce5"/><circle cx="528.665" cy="284.66499999999996" r="8.135" fill="#6f87ec"/><circle cx="610.005" cy="284.66499999999996" r="8.135" fill="#ff5e84"/><circle cx="691.335" cy="284.66499999999996" r="8.135" fill="#ff668a"/><circle cx="772.665" cy="284.66499999999996" r="8.135" fill="#8599ef"/><circle cx="854.005" cy="284.66499999999996" r="8.135" fill="#ffb9ca"/><circle cx="935.335" cy="284.66499999999996" r="8.135" fill="#3759e5"/><circle cx="1016.665" cy="284.66499999999996" r="8.135" fill="#4f6de8"/><circle cx="1098.0049999999999" cy="284.66499999999996" r="8.135" fill="#d7defa"/><circle cx="1179.335" cy="284.66499999999996" r="8.135" fill="#6680eb"/><circle cx="1260.665" cy="284.66499999999996" r="8.135" fill="#9cadf2"/><circle cx="40.665" cy="366.005" r="8.135" fill="#c4cef7"/><circle cx="122.00500000000001" cy="366.005" r="8.135" fill="#1f45e2"/><circle cx="203.33499999999998" cy="366.005" r="8.135" fill="#ffe3e9"/><circle cx="284.66499999999996" cy="366.005" r="8.135" fill="#9aabf2"/><circle cx="366.005" cy="366.005" r="8.135" fill="#ffe1e8"/><circle cx="447.335" cy="366.005" r="8.135" fill="#ffffff"/><circle cx="528.665" cy="366.005" r="8.135" fill="#ff678b"/><circle cx="610.005" cy="366.005" r="8.135" fill="#254ae3"/><circle cx="691.335" cy="366.005" r="8.135" fill="#ffe1e8"/><circle cx="772.665" cy="366.005" r="8.135" fill="#1c42e1"/><circle cx="854.005" cy="366.005" r="8.135" fill="#ff84a1"/><circle cx="935.335" cy="366.005" r="8.135" fill="#4766e7"/><circle cx="1016.665" cy="366.005" r="8.135" fill="#7c92ee"/><circle cx="1098.0049999999999" cy="366.005" r="8.135" fill="#fffefe"/><circle cx="1179.335" cy="366.005" r="8.135" fill="#dae0fa"/><circle cx="1260.665" cy="366.005" r="8.135" fill="#ff4e78"/><circle cx="40.665" cy="447.335" r="8.135" fill="#ff3666"/><circle cx="122.00500000000001" cy="447.335" r="8.135" fill="#ffb5c6"/><circle cx="203.33499999999998" cy="447.335" r="8.135" fill="#ff3e6c"/><circle cx="284.66499999999996" cy="447.335" r="8.135" fill="#4666e7"/><circle cx="366.005" cy="447.335" r="8.135" fill="#ffdee6"/><circle cx="447.335" cy="447.335" r="8.135" fill="#e9edfc"/><circle cx="528.665" cy="447.335" r="8.135" fill="#ffbbcb"/><circle cx="610.005" cy="447.335" r="8.135" fill="#4363e7"/><circle cx="691.335" cy="447.335" r="8.135" fill="#ff557d"/><circle cx="772.665" cy="447.335" r="8.135" fill="#ff7293"/><circle cx="854.005" cy="447.335" r="8.135" fill="#8ea1f0"/><circle cx="935.335" cy="447.335" r="8.135" fill="#ff86a2"/><circle cx="1016.665" cy="447.335" r="8.135" fill="#edf0fd"/><circle cx="1098.0049999999999" cy="447.335" r="8.135" fill="#ff3666"/><circle cx="1179.335" cy="447.335" r="8.135" fill="#ffbaca"/><circle cx="1260.665" cy="447.335" r="8.135" fill="#ff4370"/><circle cx="40.665" cy="528.665" r="8.135" fill="#f8fafe"/><circle cx="122.00500000000001" cy="528.665" r="8.135" fill="#fffdfd"/><circle cx="203.33499999999998" cy="528.665" r="8.135" fill="#90a3f1"/><circle cx="284.66499999999996" cy="528.665" r="8.135" fill="#ffa0b7"/><circle cx="366.005" cy="528.665" r="8.135" fill="#ffa7bc"/><circle cx="447.335" cy="528.665" r="8.135" fill="#fff4f7"/><circle cx="528.665" cy="528.665" r="8.135" fill="#8a9ef0"/><circle cx="610.005" cy="528.665" r="8.135" fill="#ff3d6b"/><circle cx="691.335" cy="528.665" r="8.135" fill="#ff3968"/><circle cx="772.665" cy="528.665" r="8.135" fill="#ff7697"/><circle cx="854.005" cy="528.665" r="8.135" fill="#90a2f1"/><circle cx="935.335" cy="528.665" r="8.135" fill="#ffbdcd"/><circle cx="1016.665" cy="528.665" r="8.135" fill="#889cf0"/><circle cx="1098.0049999999999" cy="528.665" r="8.135" fill="#ffb9ca"/><circle cx="1179.335" cy="528.665" r="8.135" fill="#254ae3"/><circle cx="1260.665" cy="528.665" r="8.135" fill="#b7c4f6"/><circle cx="40.665" cy="610.005" r="8.135" fill="#eceffd"/><circle cx="122.00500000000001" cy="610.005" r="8.135" fill="#ffb2c4"/><circle cx="203.33499999999998" cy="610.005" r="8.135" fill="#ffedf1"/><circle cx="284.66499999999996" cy="610.005" r="8.135" fill="#2e51e4"/><circle cx="366.005" cy="610.005" r="8.135" fill="#ff567e"/><circle cx="447.335" cy="610.005" r="8.135" fill="#2247e2"/><circle cx="528.665" cy="610.005" r="8.135" fill="#d8dffa"/><circle cx="610.005" cy="610.005" r="8.135" fill="#3557e5"/><circle cx="691.335" cy="610.005" r="8.135" fill="#2e51e4"/><circle cx="772.665" cy="610.005" r="8.135" fill="#ff7394"/><circle cx="854.005" cy="610.005" r="8.135" fill="#a2b2f3"/><circle cx="935.335" cy="610.005" r="8.135" fill="#ffabbf"/><circle cx="1016.665" cy="610.005" r="8.135" fill="#ff90ab"/><circle cx="1098.0049999999999" cy="610.005" r="8.135" fill="#ff547c"/><circle cx="1179.335" cy="610.005" r="8.135" fill="#3f5fe6"/><circle cx="1260.665" cy="610.005" r="8.135" fill="#ff4a75"/><circle cx="40.665" cy="691.335" r="8.135" fill="#fafbfe"/><circle cx="122.00500000000001" cy="691.335" r="8.135" fill="#ffa9bd"/><circle cx="203.33499999999998" cy="691.335" r="8.135" fill="#ff6489"/><circle cx="284.66499999999996" cy="691.335" r="8.135" fill="#fff2f5"/><circle cx="366.005" cy="691.335" r="8.135" fill="#5773e9"/><circle cx="447.335" cy="691.335" r="8.135" fill="#ffb4c6"/><circle cx="528.665" cy="691.335" r="8.135" fill="#ffa7bc"/><circle cx="610.005" cy="691.335" r="8.135" fill="#ff6589"/><circle cx="691.335" cy="691.335" r="8.135" fill="#ff4672"/><circle cx="772.665" cy="691.335" r="8.135" fill="#ff8ca8"/><circle cx="854.005" cy="691.335" r="8.135" fill="#ffbbcb"/><circle cx="935.335" cy="691.335" r="8.135" fill="#ffb1c3"/><circle cx="1016.665" cy="691.335" r="8.135" fill="#fffefe"/><circle cx="1098.0049999999999" cy="691.335" r="8.135" fill="#506de8"/><circle cx="1179.335" cy="691.335" r="8.135" fill="#ff3b69"/><circle cx="1260.665" cy="691.335" r="8.135" fill="#cfd7f9"/></g></svg>