<svg id="SvgjsSvg1089" width="288" height="288" xmlns="http://www.w3.org/2000/svg" version="1.1" xmlns:xlink="http://www.w3.org/1999/xlink" xmlns:svgjs="http://svgjs.com/svgjs"><defs id="SvgjsDefs1090"></defs><g id="SvgjsG1091"><svg xmlns="http://www.w3.org/2000/svg" width="288" height="288" viewBox="0 0 700 700"><path d="m203.96 344.84c-4.5508-0.027344-8.4648 3.2227-9.2734 7.7031l-36.227 196.44c-0.46875 2.707 0.26953 5.4883 2.0156 7.6094 1.7578 2.1562 4.3906 3.4102 7.1719 3.4141h362.08c2.7812-0.003906 5.4141-1.2578 7.1719-3.4141 1.7461-2.1211 2.4844-4.9023 2.0156-7.6094l-36.227-196.44c-0.80859-4.4805-4.7227-7.7305-9.2734-7.7031h-103.16v-55.648h77.262c18.949-0.054688 37.164-7.3203 50.949-20.324 13.781-13 22.094-30.762 23.25-49.676h-382.11c1.1328 18.906 9.4297 36.668 23.199 49.672 13.766 13.004 31.973 20.273 50.91 20.328h74.727v55.648zm144.81 18.375c23.672 0 46.375 9.4062 63.109 26.141 16.738 16.738 26.141 39.441 26.141 63.109 0 23.672-9.4023 46.375-26.141 63.109-16.734 16.738-39.438 26.141-63.109 26.141-23.668 0-46.371-9.4023-63.109-26.141-16.734-16.734-26.141-39.438-26.141-63.109 0-23.668 9.4062-46.371 26.141-63.109 16.738-16.734 39.441-26.141 63.109-26.141z" fill="#362ddf" class="color000 svgShape"></path><path d="M288.75 448c1.3125-.26172 2.6719.074219 3.707.92188 1.0352.84766 1.6367 2.1172 1.6367 3.4531s-.60156 2.6055-1.6367 3.4531c-1.0352.84766-2.3945 1.1836-3.707.92188h-20.301c1.1289 19.754 9.4844 38.398 23.473 52.391 13.992 13.988 32.637 22.344 52.391 23.473v-19.777c-.26172-1.3086.074219-2.6719.92188-3.707.84766-1.0312 2.1172-1.6328 3.4531-1.6328s2.6055.60156 3.4531 1.6328c.84766 1.0352 1.1836 2.3984.92188 3.707v19.863c19.723-1.168 38.328-9.543 52.281-23.527s22.281-32.609 23.406-52.336h-19.688c-1.3125.26562-2.6719-.074219-3.707-.92188-1.0352-.84766-1.6367-2.1133-1.6367-3.4531 0-1.3359.60156-2.6016 1.6367-3.4492 1.0352-.84766 2.3945-1.1875 3.707-.92578h19.688c-1.1484-19.723-9.4961-38.336-23.469-52.305-13.969-13.973-32.582-22.32-52.305-23.469v19.863c-.42187 2.082-2.25 3.582-4.375 3.582-2.1289 0-3.957-1.5-4.375-3.582v-19.949c-19.738 1.125-38.375 9.4648-52.363 23.438-13.988 13.973-22.352 32.598-23.5 52.336zm62.301-12.25c3.1133-.03125 6.1641.88672 8.75 2.625l26.773-26.25c.82422-.85547 1.9609-1.3398 3.1523-1.3398 1.1875 0 2.3242.48438 3.1484 1.3398 1.6875 1.7617 1.6875 4.5391 0 6.3008l-26.949 26.25c1.2383 2.3125 1.8711 4.9023 1.8359 7.5234 0 4.4336-1.7617 8.6836-4.8945 11.816-3.1328 3.1367-7.3828 4.8984-11.816 4.8984-4.4336 0-8.6836-1.7617-11.816-4.8984-3.1367-3.1328-4.8984-7.3828-4.8984-11.816 0-4.4336 1.7617-8.6836 4.8984-11.816 3.1328-3.1328 7.3828-4.8945 11.816-4.8945zM272.65 158.29c12.688 32.461 25.199 50.312 40.512 58.012h.003906c4.6875 2.0234 10.008 2.0234 14.699 0 7.0742-2.6797 14.57-4.0742 22.137-4.1133 7.8047.042969 15.516 1.6836 22.664 4.8125 4.4062 1.9297 9.3906 2.0859 13.91.4375 12.074-4.8125 23.449-16.977 35-37.625 3.7852-6.793 6.7227-14.02 8.75-21.523 8.75-31.852 10.148-72.625-30.012-85.926-5.4102-1.707-11.215-1.707-16.625 0-9.6016 3.0391-19.594 4.6602-29.664 4.8125h-1.3984c-2.6602.03125-5.3203-.11719-7.9609-.4375h-.96484c-6.3086-.51953-12.535-1.7812-18.551-3.7617-7.7031-2.5742-16.004-2.7539-23.812-.51953-7.8086 2.2305-14.758 6.7734-19.938 13.031-8.1289 10.098-13.258 22.273-14.805 35.145-1.5469 12.871.55078 25.918 6.0547 37.656z" fill="#362ddf" class="color000 svgShape"></path><path d="M339.76 69.301l.4375 4.1992 17.5-1.1367v-4.1992c0-23.887-13.914-46.637-24.062-61.25l-4.5508-6.9141-21.262 10.5 6.9141 8.75c12.715 14.113 21.363 31.41 25.023 50.051zM359.45 43.75v1.2266c1.0625 4.4453 1.6484 8.9922 1.75 13.562v6.0391l6.3008-2.3672c22.836-7.6133 36.398-25.812 41.477-55.648l.875-6.5625-6.3867 1.4883h-.003906c-10.305 2.1211-19.832 7.0312-27.547 14.188-7.7109 7.1562-13.316 16.293-16.203 26.41z" fill="#362ddf" class="color000 svgShape"></path></svg></g></svg>