<svg id="SvgjsSvg1096" width="288" height="288" xmlns="http://www.w3.org/2000/svg" version="1.1" xmlns:xlink="http://www.w3.org/1999/xlink" xmlns:svgjs="http://svgjs.com/svgjs"><defs id="SvgjsDefs1097"></defs><g id="SvgjsG1098"><svg xmlns="http://www.w3.org/2000/svg" width="288" height="288" viewBox="0 0 700 700"><path d="m654.13 432.43v-49.895c0-4.3555-1.6719-8.457-4.7148-11.551-3.0586-3.0938-7.125-4.8008-11.449-4.8008-8.918 0-16.172 7.3359-16.172 16.352v8.3984c0 2.9609-2.3398 5.3711-5.2148 5.3711h-5.8672l0.21094-3.3672c0.16406-2.6406-1.8242-4.9219-4.4648-5.1172l-99.059-7.2656c0.070312-5.5391 0.066406-16.648-0.082032-39.371h31.227c2.668 0 4.8281-2.1602 4.8281-4.8281v-5.2305c5.3516 1.75 11.621 3.0742 18.465 3.0742 4.7109 0 9.6875-0.62109 14.801-2.1445 0.03125-0.007813 0.11719-0.035157 0.17969-0.058594 7.5625-2.3047 12.84-9.4766 12.84-17.457v-49.906c0-4.3477-1.6719-8.4453-4.7148-11.539-3.0664-3.1055-7.1367-4.8125-11.461-4.8125-7.2852 0-13.453 4.9023-15.465 11.617l-30.633-66.191c-6.207-13.945-16.863-24.777-30-30.5-0.046875-0.019531-0.089844-0.039062-0.13672-0.058593-0.0625-0.03125-0.125-0.058594-0.19141-0.085938-6.9648-2.9844-14.262-4.9375-21.742-5.8203v-8.6172c3.3359-2.2109 6.3555-4.8242 8.9766-7.8398 2.3789-2.7305 4.3789-5.8203 6.0156-9.1797 13.195-3.6602 22.559-12.398 24.117-22.738 0.38281-2.5352 1.0469-10.039-3.168-15.836 5.0469-6.7852 10.695-16.734 13.449-29.723 2.3125-10.895 2.2031-22.406-0.32031-33.289-0.28906-1.2539-1.0703-2.3398-2.168-3.0156-1.0977-0.67578-2.418-0.88672-3.6719-0.58594-3.9688 0.96094-8.0742 1.5859-12.188 1.8672-1.4531 0.09375-2.9141 0.14453-4.3828 0.15234 1.7305-2.1289 3.6016-4.1523 5.6055-6.0508 3.6055-3.4258 7.6055-6.4141 11.895-8.8906 1.6836-0.97266 2.6211-2.8633 2.375-4.793-0.24609-1.9297-1.625-3.5234-3.5039-4.043-12.418-3.4297-25.148-4.9805-37.84-4.6133-17.902 0.53516-35.285 4.7695-51.68 12.602-9.0547-1.1797-21.539-0.77344-32.387 6.8281-19.398 13.617-24.895 44.422-13.379 72.734-4.9375 5.8867-4.2422 14.008-3.8398 16.66 1.5586 10.34 10.922 19.078 24.117 22.742 1.6328 3.3555 3.6367 6.4453 6.0156 9.1797 2.5547 2.9336 5.5117 5.5078 8.7812 7.707v9.1562c-9.4414 1.9805-18.461 5.3867-26.859 10.152-5.9805 3.3984-11.031 7.9727-15.008 13.594-3.9766 5.6055-6.6523 11.898-7.9492 18.711-2.5703 13.625-5.1523 27.262-7.7344 40.883l-1.7266 9.1328c-3.332 17.652 2.8867 35.949 16.234 47.754l12.691 11.215-43.047 63.039h-76.648c-13.297 0-26.367 3.4961-37.793 10.113-7.75 4.4883-15.242 8.5938-21.672 11.879-1.2188 0.62891-2.4414 1.2305-3.6133 1.8125-2.7383 1.3359-6.875 3.3555-11.863 2.5938l-0.13281-0.019531c-1.8438-0.29297-3.457-1.3164-4.543-2.8789-1.125-1.6211-1.5273-3.5898-1.1289-5.5391l1.1211-5.5234c4.1289-20.195-8.707-40.074-28.609-44.309-13.5-2.8789-26.996-5.7461-40.488-8.6133l-3.7031-0.78516c1.8281-10.137-0.95312-18.617-2.9102-22.98-0.6875-1.5312-2.1211-2.5938-3.7891-2.8086-1.6641-0.21484-3.3203 0.45312-4.375 1.7578-6.207 7.7031-12.832 15.16-19.691 22.164-5.4727 5.6016-16.262 15.445-16.363 15.539-4.1016 3.7227-24.465 23.77-22.547 52.805 1.8672 28.473 23.418 46.023 32.922 52.43-0.18359 0.26172-0.375 0.51172-0.54688 0.78125-1.2734 1.9883-2.2344 4.168-2.8555 6.4453l-20.172 0.003906c-2.668 0-4.8281 2.1602-4.8281 4.8281v93.34c0 2.668 2.1602 4.8281 4.8281 4.8281h589.7c2.668 0 4.8281-2.1602 4.8281-4.8281v-93.312c0.023438-4.1016-0.78516-8.0625-2.4102-11.789-0.38281-0.875-0.81641-1.7148-1.2812-2.5352 4.8555-3.3359 7.9609-8.9727 7.9609-15.105zm-158.98-322.8v-13.027c2.5703-0.73828 5.1133-0.49219 6.9102 0.76172 3.8203 2.6719 2.9336 9.3203 2.8203 10.074-0.73047 4.8359-4.7461 9.3203-10.672 12.363 0.63281-3.3086 0.95312-6.7305 0.94141-10.172zm-106.38-2.1953c-0.11328-0.75-1-7.3945 2.8164-10.066 1.8008-1.2578 4.3477-1.5039 6.9141-0.76562v13.008c-0.011719 3.4531 0.30469 6.8789 0.9375 10.191-5.918-3.043-9.9375-7.5312-10.668-12.367zm-211.65 365.31c-2.4844 2.5312-5.7852 3.9258-9.3008 3.9258h-70.301c-7.2656 0-13.18-6.0469-13.18-13.48 0-0.32812 0.007812-0.64453 0.035156-1 0.16797-2.2891 0.89844-4.5078 2.1211-6.4141 0.79297-1.2344 1.7773-2.3203 2.9648-3.2539 0.84375-0.67578 1.7852-1.25 2.7812-1.7031 12.887-5.7812 26.492-8.7109 40.434-8.7109 7.4258 0 14.93 0.87109 22.297 2.5898 6.2695 1.4531 12.395 3.5195 18.215 6.1445 2.668 1.1992 4.8945 3.3281 6.2773 5.9922 0 0.003906 0.003906 0.003906 0.003906 0.007813 1.0078 1.9375 1.543 4.1328 1.543 6.3516 0 3.6094-1.3789 7.0039-3.8906 9.5508zm22.301-22.965h-12.984c-2.3555-3.3633-5.5625-6.0703-9.2812-7.7461-5.6328-2.5391-11.535-4.5742-17.562-6.1172-1.8711-4.4102-4.0898-8.6992-6.668-12.777-1.9844-3.125-4.1797-6.125-6.543-8.9766 3.8672-5.3281 4.6094-11.258 4.7305-12.613 0.23828-2.6562-1.7227-5-4.3789-5.2383-2.6523-0.25-5 1.7227-5.2383 4.3789-0.023438 0.25-0.59766 6.1875-4.7109 9.7656-0.61328 0.53125-1.2266 0.96094-1.8906 1.3164-5.6328 3.0625-13.176 0.90625-15.426-3.0547-0.019532-0.03125-1.7188-3.0156-0.5-5.8672 0.80078-1.8867 2.4766-2.875 3.4062-3.2969 2.2695-1.0312 3.3789-3.6172 2.5664-5.9727-2.2031-6.375-5.1758-12.477-8.8398-18.137-1.4062-2.1719-2.9141-4.2773-4.5195-6.3125 2.1094 0.14453 4.2188 0.28516 6.3242 0.42578 1.707 0.11719 3.3398-0.67969 4.3047-2.0898 0.96484-1.4102 1.1133-3.2227 0.39453-4.7695-1.7734-3.8047-4.0195-7.3711-6.6719-10.59-1.9219-2.3359-4.0664-4.4883-6.3984-6.4336 1.1055-1.5859 2.1953-3.4648 3.1797-5.5625l4.6523 0.98828c13.488 2.8672 26.984 5.7344 40.484 8.6133 14.738 3.1367 24.234 17.91 21.16 32.938l-1.1211 5.5273c-0.91406 4.4883 0.054687 9.2109 2.6562 12.961 2.5977 3.7461 6.4883 6.1992 10.984 6.9141l0.16016 0.023437c1.2773 0.19531 2.5078 0.28125 3.6914 0.28125 3.7266 0 6.9531-0.85937 9.5586-1.8398zm334.3-125.77v7.5273h-49.012c-2.3477-7.1914-7.6289-13.809-14.879-18.758l2.8008-1.3203c4.1172-1.957 7.0117-5.6562 7.9414-10.16 0.93359-4.5273-0.26953-9.1094-3.3086-12.57-2.7148-3.0898-6.625-4.8633-10.723-4.8633-1.6172 0-3.207 0.27344-4.7227 0.80469l-19.047 6.7305-15.613-12.605h106.56zm31.566-43.984c1.1094-2.1484 1.6953-4.5664 1.6953-6.9844v-8.3984c0-3.6914 2.918-6.6992 6.5039-6.6992 1.7227 0 3.3516 0.69141 4.582 1.9336 1.2461 1.2695 1.9375 2.9609 1.9375 4.7617v49.906c0 3.7773-2.4766 7.1641-6.0273 8.2305-0.023438 0.007812-0.097657 0.03125-0.15625 0.050781-11.629 3.4531-22.566 1.1328-30.449-1.9258v-32.832h8.7383c5.5352-0.003906 10.578-3.0781 13.176-8.043zm-9.8906-2.8125c-0.91406 0.76172-2.0664 1.1992-3.2812 1.1992h-8.7383v-4.4414c0-2.668-2.1602-4.8281-4.8281-4.8281h-31.258v-13.148c5.6992-0.28906 11.312-1.3398 16.746-3.1641 5.8203-1.9453 11.27-4.6953 16.277-8.1992zm-138.76-142.76c-2.1406-2.4609-3.9062-5.3086-5.2695-8.4531-0.085938-0.25781-0.19141-0.50391-0.31641-0.74219-1.9102-4.7188-2.918-10.109-2.8984-15.637v-27.812c4.1836-3.1797 7.9805-6.8086 11.262-10.871 2.7344-3.3789 5.1133-7 7.1172-10.832 1.3281 2.9922 3.1094 6.0859 5.4922 9.1211 7.7344 9.8047 17.562 13.512 22.734 14.852 1.6875 0.4375 3.4805-0.070313 4.6875-1.3281s1.6445-3.0664 1.1445-4.7383c-1.2344-4.1055-1.8555-8.3789-1.8477-12.707v-0.18359c2.957 3.5898 6.832 7.2227 11.848 10.184 4.5586 2.6914 9.6406 4.5508 14.898 5.4961v28.84c0.023437 5.5117-0.98438 10.902-2.8984 15.617-0.125 0.23828-0.23047 0.48438-0.31641 0.74219-1.3633 3.1445-3.1289 5.9922-5.2695 8.4531-2.5391 2.918-5.543 5.3867-8.9453 7.3438-7.8984 4.5898-16.023 5.5039-20.148 5.6367-0.73828 0.023437-1.4453 0.023437-2.1641 0-4.1875-0.13672-12.402-1.0625-20.34-5.7344-3.3438-1.957-6.293-4.3984-8.7695-7.2461zm49.027 19.145v6.4062l-18.855 24.145-19.016-24.152v-6.4688c7.1992 2.7656 13.812 3.4414 17.66 3.5625 0.46094 0.011718 0.91406 0.019531 1.3672 0.019531 0.45703 0 0.91797-0.007813 1.3945-0.019531 3.7852-0.125 10.32-0.78516 17.449-3.4922zm-87.863 48.316c1.0352-5.4336 3.168-10.453 6.3438-14.926 3.1562-4.4609 7.1641-8.0859 11.898-10.781 7.7812-4.4141 16.16-7.5156 24.934-9.2617l22.055 28.008c0.91406 1.1641 2.3125 1.8398 3.793 1.8398h0.007813c1.4844-0.003907 2.8828-0.6875 3.7969-1.8555l22.066-28.254c7.043 0.67969 13.914 2.4219 20.457 5.2109 0.16016 0.078125 0.32812 0.15234 0.5 0.21875 10.867 4.7695 19.715 13.828 24.949 25.59l17.578 37.98c-4.625 3.4648-9.7188 6.1484-15.203 7.9844-4.4453 1.4922-9.0312 2.3789-13.684 2.6562v-24.414c0-2.668-2.1602-4.8281-4.8281-4.8281s-4.8281 2.1602-4.8281 4.8281v47.227l-82.188 0.003906c-4.2812-4.4297-6.043-10.762-4.6016-16.91l6.3789-27.176c0.60938-2.5977-1.0039-5.1914-3.5977-5.8008-2.5977-0.60938-5.1914 1.0039-5.8008 3.5977l-4.7773 20.348-32.062-5.2617c2.2734-12.012 4.5469-24.023 6.8125-36.023zm3.6836 88.738c-10.812-9.5664-15.848-24.406-13.145-38.723l0.85156-4.5 31.785 5.2188c-1.2773 9.2773 2.0938 18.535 9.1289 24.734 0.003906 0.003907 0.007813 0.007813 0.007813 0.007813 0.085937 0.074219 0.16406 0.15625 0.25 0.23047 0.21875 0.1875 0.4375 0.37891 0.68359 0.57812l27.758 22.41c1.3047 1.0508 3.0586 1.3516 4.6406 0.79688l21.594-7.6289c1.6953-0.59766 3.7461-0.074219 4.9727 1.3242 1.0195 1.1641 1.4258 2.7109 1.1055 4.25-0.3125 1.5078-1.2695 2.7461-2.6172 3.3828l-11.406 5.3828c-1.7266 0.81641-2.8125 2.5703-2.7656 4.4805s1.2109 3.6133 2.9766 4.3438c10.125 4.2031 17.539 12.141 18.887 20.234 0.33594 1.9727 0.26953 3.8164-0.19531 5.4766-1.9727 7.0977-11.016 10.477-15.516 11.273-6.9531 1.2188-14.797-1.1797-22.094-6.7617-6.3438-4.8281-11.973-11.805-16.277-20.164-0.27344-0.53125-0.64453-1.0117-1.0977-1.4062zm-116.67 186.01h-31.137c-12.547 0-23.301-9.4922-25.133-22.133l6.7539-52.984c6.0312-3.1406 12.832-6.8906 19.832-10.945 9.957-5.7656 21.355-8.8125 32.957-8.8125h76.887c6.9023 8.5703 12.109 18.23 15.449 28.766 3.2422 10.262 4.6016 21.246 3.9961 32.023h-115.24c-2.668 0-4.8281 2.1602-4.8281 4.8281s2.1602 4.8281 4.8281 4.8281h15.641zm157.85 15.562c-6.5625 5.7734-16.496 6.4727-28.734 2.0234-5.5469-2.0234-10.512-5.3672-14.758-9.9375-4.5156-4.8594-10.852-7.6484-17.379-7.6484h-87.32v-24.426h94.398 0.011718 0.007813 10.016c0.375 0 0.74609-0.042969 1.1133-0.12891 13.66-3.2344 27.27-2.0273 37.34 3.3086 6.3086 3.3398 10.66 8.0312 12.262 13.219 2.4102 7.8398-0.57812 17.98-6.957 23.59zm175.82-54.832-177.86 8.8711c-11.809-5.8086-27.086-7.1602-42.273-3.6836h-4.2656c0.59375-11.762-0.91797-23.738-4.4609-34.938-3.5742-11.285-9.0742-21.66-16.336-30.918l41.785-61.188 18.887 16.691c4.1641 7.8672 9.4219 14.664 15.352 19.926l-12.066 21.793-24.57-1.8008c-2.6562-0.19922-4.9727 1.8008-5.168 4.4609-0.19531 2.6602 1.8047 4.9727 4.4609 5.168l209.03 15.328zm45.996-4.9648c0 3.7852-2.4688 7.168-6.0078 8.2305-0.023437 0.007813-0.089844 0.027344-0.14453 0.046875-0.20703 0.058594-0.42188 0.12109-0.63281 0.17188-0.039062 0.007813-0.078124 0.019532-0.12109 0.03125-11.277 3.1367-21.848 0.90625-29.508-2.0391l2.0508-32.906h6.4688c8.1992 0 14.867-6.7422 14.867-15.027v-8.3984c0-3.6914 2.9219-6.6992 6.5156-6.6992 1.7227 0 3.3477 0.6875 4.5703 1.9219 1.2461 1.2695 1.9336 2.9648 1.9336 4.7734z" fill="#362ddf" class="color000 svgShape"></path></svg></g></svg>